<svg width="47" height="46" viewBox="0 0 47 46" fill="none" xmlns="http://www.w3.org/2000/svg">
<rect x="0.5" width="46" height="46" rx="10" fill="#EEF2FF"/>
<path d="M34.8267 30.5L31.2133 24.26C31.9527 22.902 32.3379 21.3796 32.3333 19.8333C32.3333 17.358 31.35 14.984 29.5997 13.2337C27.8493 11.4833 25.4754 10.5 23 10.5C20.5246 10.5 18.1507 11.4833 16.4003 13.2337C14.65 14.984 13.6667 17.358 13.6667 19.8333C13.6621 21.3796 14.0473 22.902 14.7867 24.26L11.1733 30.5C11.0561 30.7031 10.9945 30.9335 10.9947 31.168C10.9949 31.4025 11.057 31.6328 11.1746 31.8356C11.2923 32.0385 11.4614 32.2067 11.6648 32.3234C11.8682 32.44 12.0988 32.5009 12.3333 32.5H16.16L18.1067 35.78C18.1723 35.8887 18.2531 35.9875 18.3467 36.0733C18.5938 36.3116 18.9234 36.4453 19.2667 36.4467H19.4533C19.6546 36.4191 19.847 36.3459 20.0156 36.2327C20.1843 36.1195 20.3249 35.9692 20.4267 35.7933L23 31.3667L25.5733 35.8333C25.6766 36.0067 25.8178 36.1544 25.9864 36.2653C26.155 36.3761 26.3466 36.4473 26.5467 36.4733H26.7333C27.0812 36.4754 27.4162 36.3414 27.6667 36.1C27.7563 36.019 27.8328 35.9246 27.8933 35.82L29.84 32.54H33.6667C33.9016 32.5409 34.1326 32.4798 34.3363 32.3627C34.54 32.2456 34.7092 32.0768 34.8267 31.8733C34.9513 31.666 35.0171 31.4286 35.0171 31.1867C35.0171 30.9447 34.9513 30.7074 34.8267 30.5ZM19.2533 32.54L18.0667 30.5533C17.9498 30.3562 17.7841 30.1926 17.5856 30.0781C17.3871 29.9637 17.1625 29.9023 16.9333 29.9H14.6267L16.5333 26.5933C17.8463 27.8585 19.5011 28.7114 21.2933 29.0467L19.2533 32.54ZM23 26.5C21.6815 26.5 20.3925 26.109 19.2962 25.3765C18.1999 24.6439 17.3454 23.6027 16.8408 22.3846C16.3362 21.1664 16.2042 19.8259 16.4614 18.5327C16.7187 17.2395 17.3536 16.0516 18.286 15.1193C19.2183 14.1869 20.4062 13.552 21.6994 13.2948C22.9926 13.0375 24.333 13.1696 25.5512 13.6741C26.7694 14.1787 27.8106 15.0332 28.5431 16.1295C29.2757 17.2259 29.6667 18.5148 29.6667 19.8333C29.6667 21.6014 28.9643 23.2971 27.714 24.5474C26.4638 25.7976 24.7681 26.5 23 26.5ZM29.0667 29.9C28.8375 29.9023 28.6129 29.9637 28.4144 30.0781C28.2159 30.1926 28.0502 30.3562 27.9333 30.5533L26.7467 32.54L24.72 29.0067C26.506 28.6645 28.1546 27.8124 29.4667 26.5533L31.3733 29.86L29.0667 29.9Z" fill="url(#paint0_linear_6839_864)"/>
<defs>
<linearGradient id="paint0_linear_6839_864" x1="23.0059" y1="10.5" x2="23.0059" y2="36.4734" gradientUnits="userSpaceOnUse">
<stop stop-color="#B468FF"/>
<stop offset="0.963542" stop-color="#6366F1"/>
</linearGradient>
</defs>
</svg>
