<svg width="24" height="24" viewBox="0 0 24 24" fill="none" xmlns="http://www.w3.org/2000/svg">
<mask id="mask0_6839_1271" style="mask-type:alpha" maskUnits="userSpaceOnUse" x="0" y="0" width="24" height="24">
<rect width="24" height="24" fill="#D9D9D9"/>
</mask>
<g mask="url(#mask0_6839_1271)">
<path d="M12.0002 14.95C11.8669 14.95 11.7419 14.929 11.6252 14.887C11.5085 14.8456 11.4002 14.775 11.3002 14.675L6.67518 10.05C6.49185 9.86664 6.40452 9.63731 6.41318 9.36198C6.42118 9.08731 6.51685 8.85831 6.70018 8.67498C6.88352 8.49164 7.11685 8.39998 7.40018 8.39998C7.68352 8.39998 7.91685 8.49164 8.10018 8.67498L12.0002 12.575L15.9252 8.64998C16.1085 8.46664 16.3379 8.37898 16.6132 8.38698C16.8879 8.39564 17.1168 8.49164 17.3002 8.67498C17.4835 8.85831 17.5752 9.09164 17.5752 9.37498C17.5752 9.65831 17.4835 9.89164 17.3002 10.075L12.7002 14.675C12.6002 14.775 12.4919 14.8456 12.3752 14.887C12.2585 14.929 12.1335 14.95 12.0002 14.95Z" fill="#03112F"/>
</g>
</svg>
