<svg width="107" height="107" viewBox="0 0 107 107" fill="none" xmlns="http://www.w3.org/2000/svg">
<path d="M73.75 67.25C75.375 68.75 75.375 71.375 73.75 72.875C73 73.625 72 74 71 74C69.875 74 68.875 73.625 68.125 72.875L55 59.75L41.75 72.875C41 73.625 40 74 39 74C37.875 74 36.875 73.625 36.125 72.875C34.5 71.375 34.5 68.75 36.125 67.25L49.25 54L36.125 40.875C34.5 39.375 34.5 36.75 36.125 35.25C37.625 33.625 40.25 33.625 41.75 35.25L55 48.375L68.125 35.25C69.625 33.625 72.25 33.625 73.75 35.25C75.375 36.75 75.375 39.375 73.75 40.875L60.625 54.125L73.75 67.25Z" fill="#EB5757"/>
<circle cx="53.5" cy="53.5" r="51" stroke="#EB5757" stroke-width="5"/>
</svg>
