<svg width="29" height="28" viewBox="0 0 29 28" fill="none" xmlns="http://www.w3.org/2000/svg">
<path d="M26.125 0.8125C27.1543 0.8125 28.0625 1.7207 28.0625 2.81055V26C28.0625 27.0898 27.1543 27.9375 26.125 27.9375H2.81445C1.78516 27.9375 0.9375 27.0898 0.9375 26V2.81055C0.9375 1.7207 1.78516 0.8125 2.81445 0.8125H26.125ZM9.11133 24.0625V11.166H5.11523V24.0625H9.11133ZM7.11328 9.34961C8.38477 9.34961 9.41406 8.32031 9.41406 7.04883C9.41406 5.77734 8.38477 4.6875 7.11328 4.6875C5.78125 4.6875 4.75195 5.77734 4.75195 7.04883C4.75195 8.32031 5.78125 9.34961 7.11328 9.34961ZM24.1875 24.0625V16.9785C24.1875 13.5273 23.4004 10.8027 19.3438 10.8027C17.4062 10.8027 16.0742 11.8926 15.5293 12.9219H15.4688V11.166H11.6543V24.0625H15.6504V17.7051C15.6504 16.0098 15.9531 14.375 18.0723 14.375C20.1309 14.375 20.1309 16.3125 20.1309 17.7656V24.0625H24.1875Z" fill="#03112F"/>
</svg>
