<svg width="29" height="28" viewBox="0 0 29 28" fill="none" xmlns="http://www.w3.org/2000/svg">
<path d="M25.1562 0.8125C26.7305 0.8125 28.0625 2.14453 28.0625 3.71875V25.0312C28.0625 26.666 26.7305 27.9375 25.1562 27.9375H3.84375C2.20898 27.9375 0.9375 26.666 0.9375 25.0312V3.71875C0.9375 2.14453 2.20898 0.8125 3.84375 0.8125H25.1562ZM9.41406 18.3105C9.7168 18.3105 9.95898 18.1289 10.2012 17.7656C12.1387 14.3145 13.1074 12.5586 13.2285 12.377L11.291 9.04688C11.0488 8.68359 10.8066 8.50195 10.5039 8.50195H7.6582C7.29492 8.50195 7.11328 8.80469 7.29492 9.10742L9.23242 12.377C9.23242 12.4375 9.23242 12.4375 9.23242 12.4375L6.20508 17.6445C6.08398 17.9473 6.26562 18.3105 6.56836 18.3105H9.41406ZM22.7344 5.35352C22.8555 4.99023 22.6738 4.6875 22.3711 4.74805H19.5254C19.2227 4.74805 18.9805 4.86914 18.7383 5.23242C14.7422 12.377 12.623 16.0098 12.502 16.3125L16.498 23.5781C16.6797 23.9414 16.9219 24.123 17.2852 24.123H20.0703C20.4336 24.123 20.6152 23.8203 20.4336 23.457L16.498 16.252L22.7344 5.35352Z" fill="#03112F"/>
</svg>
