<svg width="75" height="87" viewBox="0 0 75 87" fill="none" xmlns="http://www.w3.org/2000/svg">
<g clip-path="url(#clip0_6839_1003)">
<path d="M74.8828 65.25V21.75L37.4997 0L0.117188 21.75V65.25L37.4997 87L74.8828 65.25Z" fill="#F4C051"/>
<path d="M51.1355 34.3755C53.6313 34.3755 55.6545 32.3366 55.6545 29.8215C55.6545 27.3064 53.6313 25.2676 51.1355 25.2676C48.6398 25.2676 46.6166 27.3064 46.6166 29.8215C46.6166 32.3366 48.6398 34.3755 51.1355 34.3755Z" fill="#ED9100"/>
<path d="M34.9859 33.6479C34.2477 33.6479 33.5261 33.4273 32.9124 33.0139C32.2987 32.6006 31.8204 32.0131 31.538 31.3258C31.2557 30.6385 31.182 29.8822 31.3262 29.1527C31.4704 28.4231 31.8261 27.7531 32.3483 27.2273C32.8705 26.7015 33.5357 26.3436 34.2598 26.1988C34.9838 26.0541 35.7342 26.129 36.416 26.4141C37.0978 26.6992 37.6804 27.1817 38.0901 27.8005C38.4997 28.4193 38.7181 29.1467 38.7175 29.8906C38.7166 30.8874 38.3231 31.8431 37.6234 32.5476C36.9237 33.2522 35.975 33.6479 34.9859 33.6479ZM34.9859 27.3867C34.4937 27.3867 34.0126 27.5338 33.6034 27.8094C33.1943 28.085 32.8754 28.4768 32.6872 28.935C32.499 29.3933 32.4499 29.8976 32.5462 30.3839C32.6424 30.8703 32.8797 31.317 33.2279 31.6675C33.5761 32.018 34.0197 32.2565 34.5024 32.3529C34.9852 32.4493 35.4855 32.3992 35.94 32.209C36.3946 32.0187 36.7829 31.6969 37.0559 31.2842C37.3288 30.8715 37.4742 30.3865 37.4736 29.8906C37.4723 29.2265 37.2096 28.5902 36.7432 28.1211C36.2768 27.652 35.6448 27.3886 34.9859 27.3886V27.3867Z" fill="white"/>
<path d="M18.2484 32.7018C20.3787 32.7018 22.1056 30.9615 22.1056 28.8147C22.1056 26.6679 20.3787 24.9276 18.2484 24.9276C16.1181 24.9276 14.3912 26.6679 14.3912 28.8147C14.3912 30.9615 16.1181 32.7018 18.2484 32.7018Z" fill="#ED9100"/>
<path d="M44.5618 55.7988L44.9101 54.2727L46.1228 54.5541L45.7739 56.0802L44.5618 55.7988ZM47.0346 50.5617L45.8224 50.2797L46.583 46.9529L47.7952 47.2343L47.0346 50.5617ZM48.7069 43.2451L47.4948 42.9637L48.2548 39.6337L49.4676 39.9152L48.7069 43.2451ZM49.1672 35.6426L49.5167 34.1152L50.7282 34.3973L50.3793 35.9234L49.1672 35.6426Z" fill="white"/>
<path d="M35.6313 33.2504L36.7881 32.791L37.3585 34.2488L36.201 34.7082L35.6313 33.2504ZM42.8159 51.6342L41.814 49.0701L42.9714 48.6107L43.974 51.1754L42.8159 51.6342ZM40.6105 45.9934L39.6099 43.4282L40.7673 42.9688L41.7698 45.5334L40.6105 45.9934ZM38.4058 40.3527L37.4039 37.7862L38.5613 37.3268L39.5638 39.8914L38.4058 40.3527ZM44.0194 54.7109L45.1761 54.2515L45.7465 55.7093L44.589 56.1687L44.0194 54.7109Z" fill="white"/>
<path d="M43.5219 56.2543L43.7613 55.024L45.2875 55.3248L45.0481 56.5551L43.5219 56.2543ZM39.636 55.4859L36.3976 54.846L36.6371 53.6157L39.8755 54.2556L39.636 55.4859ZM32.5112 54.0776L29.2721 53.4371L29.5116 52.2074L32.7506 52.8473L32.5112 54.0776ZM23.8601 52.3678L24.0995 51.1375L25.6251 51.4396L25.3857 52.6693L23.8601 52.3678Z" fill="white"/>
<path d="M20.5365 32.0063L21.4159 31.1201L22.5155 32.2282L21.6355 33.1144L20.5365 32.0063ZM40.9894 52.6163L38.7902 50.4001L39.6721 49.5133L41.8713 51.7294L40.9894 52.6163ZM36.1507 47.7408L33.9503 45.5246L34.8298 44.6384L37.0295 46.8546L36.1507 47.7408ZM31.3121 42.8654L29.113 40.6492L29.9924 39.763L32.1915 41.9791L31.3121 42.8654ZM26.4741 37.9899L24.2749 35.7737L25.1543 34.8875L27.3535 37.1037L26.4741 37.9899ZM43.6289 55.2756L44.5089 54.3894L45.6078 55.4974L44.7284 56.3837L43.6289 55.2756Z" fill="white"/>
<path d="M45.1675 67.0284C51.2445 67.0284 56.1708 62.0639 56.1708 55.94C56.1708 49.816 51.2445 44.8516 45.1675 44.8516C39.0906 44.8516 34.1643 49.816 34.1643 55.94C34.1643 62.0639 39.0906 67.0284 45.1675 67.0284Z" fill="#ED9100"/>
<path d="M45.1674 64.4074C43.5056 64.4074 41.8811 63.9108 40.4994 62.9804C39.1176 62.0499 38.0407 60.7275 37.4047 59.1803C36.7688 57.6331 36.6024 55.9306 36.9266 54.2881C37.2508 52.6456 38.051 51.1369 39.2261 49.9527C40.4012 48.7685 41.8984 47.9621 43.5282 47.6354C45.1581 47.3086 46.8476 47.4763 48.3829 48.1172C49.9182 48.7581 51.2305 49.8434 52.1537 51.2358C53.077 52.6283 53.5698 54.2653 53.5698 55.94C53.5673 58.1849 52.6813 60.3372 51.1061 61.9246C49.5308 63.512 47.3951 64.4049 45.1674 64.4074ZM45.1674 48.7262C43.7516 48.7262 42.3676 49.1492 41.1904 49.9419C40.0132 50.7346 39.0957 51.8612 38.5539 53.1794C38.0121 54.4975 37.8703 55.948 38.1466 57.3474C38.4228 58.7467 39.1045 60.0321 40.1057 61.041C41.1068 62.0499 42.3823 62.7369 43.7709 63.0153C45.1595 63.2936 46.5988 63.1507 47.9069 62.6047C49.2149 62.0587 50.3329 61.1341 51.1195 59.9478C51.9061 58.7615 52.3259 57.3668 52.3259 55.94C52.3238 54.0274 51.5689 52.1938 50.2269 50.8414C48.8849 49.489 47.0653 48.7283 45.1674 48.7262Z" fill="#F4C051"/>
<path d="M20.6279 57.3749C24.0724 57.3749 26.8646 54.561 26.8646 51.0899C26.8646 47.6188 24.0724 44.8049 20.6279 44.8049C17.1834 44.8049 14.3912 47.6188 14.3912 51.0899C14.3912 54.561 17.1834 57.3749 20.6279 57.3749Z" fill="#F4C051"/>
<path d="M20.628 58.0013C19.2714 58.0013 17.9454 57.5959 16.8175 56.8364C15.6896 56.077 14.8105 54.9975 14.2914 53.7345C13.7723 52.4716 13.6364 51.0818 13.9011 49.7411C14.1657 48.4003 14.8189 47.1688 15.7781 46.2021C16.7374 45.2355 17.9595 44.5772 19.2899 44.3105C20.6204 44.0439 21.9994 44.1807 23.2527 44.7039C24.5059 45.227 25.5771 46.1129 26.3307 47.2495C27.0844 48.3862 27.4866 49.7225 27.4866 51.0895C27.4845 52.922 26.7612 54.6787 25.4754 55.9745C24.1896 57.2702 22.4463 57.9991 20.628 58.0013ZM20.628 45.4312C19.5175 45.4312 18.4319 45.7631 17.5085 46.3848C16.5852 47.0066 15.8655 47.8903 15.4406 48.9242C15.0156 49.9581 14.9044 51.0958 15.121 52.1934C15.3377 53.291 15.8724 54.2992 16.6577 55.0905C17.4429 55.8818 18.4434 56.4207 19.5326 56.6391C20.6217 56.8574 21.7507 56.7453 22.7767 56.3171C23.8026 55.8888 24.6795 55.1636 25.2965 54.2331C25.9135 53.3026 26.2428 52.2086 26.2428 51.0895C26.2411 49.5893 25.649 48.1511 24.5964 47.0903C23.5438 46.0296 22.1166 45.4329 20.628 45.4312Z" fill="white"/>
</g>
<defs>
<clipPath id="clip0_6839_1003">
<rect width="74.7656" height="87" fill="white" transform="translate(0.117188)"/>
</clipPath>
</defs>
</svg>
