<svg width="75" height="87" viewBox="0 0 75 87" fill="none" xmlns="http://www.w3.org/2000/svg">
<g clip-path="url(#clip0_6839_1026)">
<path d="M74.8828 65.25V21.75L37.4997 0L0.117188 21.75V65.25L37.4997 87L74.8828 65.25Z" fill="#373787"/>
<path d="M15.7034 49.5791V22.1602H42.9117L15.7034 49.5791ZM53.1468 31.9857V59.8916H25.4553L53.1468 31.9857Z" fill="#AFAFCF"/>
<path d="M57.3605 64.1382H20.5788V27.0692H57.3605V64.1382ZM21.8202 62.8847H56.1166V28.3227H21.8227L21.8202 62.8847Z" fill="white"/>
<path d="M25.4553 32.4395H35.4212V42.4824H25.4553V32.4395Z" fill="white"/>
<path d="M29.7188 50.1181H48.61V51.3716H29.7188V50.1181ZM25.0288 54.1424H48.61V55.3959H25.0288V54.1424ZM29.7188 46.0938H48.61V47.3472H29.7188V46.0938Z" fill="#373787"/>
</g>
<defs>
<clipPath id="clip0_6839_1026">
<rect width="74.7656" height="87" fill="white" transform="translate(0.117188)"/>
</clipPath>
</defs>
</svg>
