<svg width="75" height="87" viewBox="0 0 75 87" fill="none" xmlns="http://www.w3.org/2000/svg">
<g clip-path="url(#clip0_6839_1038)">
<path d="M74.8828 65.25V21.75L37.4997 0L0.117188 21.75V65.25L37.4997 87L74.8828 65.25Z" fill="#CFD3F7"/>
<path d="M55.7714 26.4746V63.8945H18.6383L55.7714 26.4746Z" fill="#8992E7"/>
<path d="M39.9625 60.638H21.5602V51.9131H39.9625V60.638ZM22.804 59.3845H38.7187V53.1666H22.804V59.3845Z" fill="white"/>
<path d="M52.497 60.638H42.635V51.9131H52.497V53.1666H43.8789V59.3845H52.497V60.638Z" fill="#CFD3F7"/>
<path d="M52.4659 49.3979H33.2401V40.6754H52.4659V49.3979ZM34.484 48.1444H51.2221V41.9289H34.484V48.1444ZM52.4659 38.1584H43.9405V29.4335H52.4659V38.1584ZM45.1843 36.9049H51.2221V30.687H45.1843V36.9049ZM50.3775 21.4775H52.2433V22.731H50.3775V21.4775ZM44.5263 21.4775H47.2268V22.731H44.5263V21.4775ZM40.1318 23.9845H38.8879V21.4775H41.3756V22.731H40.1318V23.9845ZM38.8879 27.3959H40.1318V30.3197H38.8879V27.3959ZM40.1318 36.2374H37.644V34.9839H38.8879V33.7304H40.1318V36.2374ZM32.2506 34.9839H34.7396V36.2374H32.2506V34.9839ZM28.1023 37.4909H26.8585V34.9839H29.3462V36.2374H28.1023V37.4909ZM26.8585 40.4197H28.1023V42.9298H26.8585V40.4197ZM28.1023 48.365H25.6146V47.1115H26.8585V45.858H28.1023V48.365ZM20.2268 47.1115H22.7139V48.365H20.2268V47.1115ZM16.0816 49.6185H14.8378V47.1115H17.3255V48.365H16.0816V49.6185ZM14.8378 52.9333H16.0816V55.7744H14.8378V52.9333ZM14.8378 59.0886H16.0816V60.9689H14.8378V59.0886Z" fill="white"/>
</g>
<defs>
<clipPath id="clip0_6839_1038">
<rect width="74.7656" height="87" fill="white" transform="translate(0.117188)"/>
</clipPath>
</defs>
</svg>
