<svg width="28" height="28" viewBox="0 0 28 28" fill="none" xmlns="http://www.w3.org/2000/svg">
<path d="M25.0933 4.06846L23.9339 2.90908C23.8902 2.86533 23.8355 2.84619 23.7781 2.84619C23.7206 2.84619 23.666 2.86807 23.6222 2.90908L21.5413 4.98994C20.6367 4.37704 19.5688 4.05027 18.4761 4.05205C17.0761 4.05205 15.6761 4.58525 14.607 5.65439L11.8206 8.44072C11.7799 8.48184 11.7571 8.53736 11.7571 8.59521C11.7571 8.65307 11.7799 8.70859 11.8206 8.74971L19.2499 16.179C19.2937 16.2228 19.3484 16.2419 19.4058 16.2419C19.4605 16.2419 19.5179 16.22 19.5617 16.179L22.348 13.3927C24.232 11.506 24.4535 8.58838 23.0124 6.46104L25.0933 4.38018C25.1781 4.29268 25.1781 4.15322 25.0933 4.06846ZM15.8292 14.9485C15.7881 14.9078 15.7326 14.885 15.6747 14.885C15.6169 14.885 15.5614 14.9078 15.5202 14.9485L13.6992 16.7696L11.23 14.3005L13.0538 12.4767C13.1386 12.3919 13.1386 12.2524 13.0538 12.1677L12.0585 11.1724C12.0174 11.1317 11.9619 11.1088 11.904 11.1088C11.8462 11.1088 11.7907 11.1317 11.7495 11.1724L9.92572 12.9962L8.74994 11.8204C8.72952 11.8 8.7052 11.7839 8.67842 11.7731C8.65164 11.7623 8.62295 11.757 8.59408 11.7575C8.53939 11.7575 8.48197 11.7794 8.43822 11.8204L5.65462 14.6067C3.77064 16.4907 3.54915 19.411 4.99017 21.5384L2.90931 23.6192C2.8686 23.6604 2.84576 23.7159 2.84576 23.7737C2.84576 23.8316 2.8686 23.8871 2.90931 23.9282L4.06869 25.0876C4.11244 25.1313 4.16712 25.1505 4.22455 25.1505C4.28197 25.1505 4.33665 25.1286 4.3804 25.0876L6.46126 23.0067C7.38275 23.6329 8.45462 23.9446 9.5265 23.9446C10.9265 23.9446 12.3265 23.4114 13.3956 22.3423L16.182 19.556C16.2667 19.4712 16.2667 19.3317 16.182 19.247L15.0062 18.0712L16.83 16.2474C16.9148 16.1626 16.9148 16.0231 16.83 15.9384L15.8292 14.9485Z" fill="black"/>
</svg>
