<svg width="28" height="28" viewBox="0 0 28 28" fill="none" xmlns="http://www.w3.org/2000/svg">
<path d="M16.0538 11.0473C16.0538 10.0545 15.3497 9.50645 14.1128 9.50645H11.8378V12.7049H13.7563C15.2368 12.7004 16.0538 12.1074 16.0538 11.0473ZM24.3368 10.4723C23.908 9.08418 23.8448 7.38164 23.8944 6.06543C23.9441 4.69531 22.8698 3.4375 21.4253 3.4375H6.58368C5.13472 3.4375 4.06493 4.6998 4.11458 6.06543C4.15972 7.38164 4.10104 9.08418 3.67222 10.4723C3.23889 11.8648 2.51215 12.7453 1.31597 12.8576V14.1379C2.50764 14.2502 3.23889 15.1307 3.67222 16.5232C4.10104 17.9113 4.16424 19.6139 4.11458 20.9301C4.06493 22.3002 5.13924 23.558 6.58368 23.558H21.4208C22.8698 23.558 23.9396 22.2957 23.8899 20.9301C23.8448 19.6139 23.9035 17.9113 24.3323 16.5232C24.7656 15.1307 25.4924 14.2502 26.684 14.1379V12.8576C25.4969 12.7453 24.7656 11.8648 24.3368 10.4723ZM14.5507 18.8502H10.1316V8.14531H14.5281C16.4826 8.14531 17.7646 9.19648 17.7646 10.8137C17.7646 11.9502 16.9024 12.9654 15.801 13.1406V13.199C17.2997 13.3607 18.3062 14.3939 18.3062 15.818C18.3062 17.7092 16.8934 18.8502 14.5507 18.8502ZM14.0993 13.9672H11.8378V17.4891H14.1986C15.7424 17.4891 16.5594 16.8736 16.5594 15.7146C16.5594 14.5602 15.7198 13.9672 14.0993 13.9672Z" fill="black"/>
</svg>
