<svg width="28" height="28" viewBox="0 0 28 28" fill="none" xmlns="http://www.w3.org/2000/svg">
<g clip-path="url(#clip0_6839_656)">
<path d="M16.9625 7.2742L12.9625 21.2745C12.8094 21.8058 12.2563 22.112 11.725 21.962C11.1937 21.8089 10.8875 21.2558 11.0375 20.7245L15.0375 6.72482C15.1906 6.19376 15.7437 5.88626 16.275 6.03801C16.8062 6.18973 17.1125 6.74326 16.9625 7.2742ZM20.2062 9.79326L23.7062 13.2933C24.0969 13.6839 24.0969 14.3151 23.7062 14.7058L20.2062 18.2058C19.8156 18.5964 19.1844 18.5964 18.7937 18.2058C18.4031 17.8151 18.4031 17.1839 18.7937 16.7933L21.5844 13.9995L18.7937 11.2058C18.4031 10.8151 18.4031 10.1839 18.7937 9.79326C19.1844 9.40264 19.8156 9.40264 20.2062 9.79326ZM9.20625 11.2058L6.41406 13.9995L9.20625 16.7933C9.59688 17.1839 9.59688 17.8151 9.20625 18.2058C8.81563 18.5964 8.18437 18.5964 7.79375 18.2058L4.29287 14.7058C3.90237 14.3151 3.90237 13.6839 4.29287 13.2933L7.79375 9.79326C8.18437 9.40264 8.81563 9.40264 9.20625 9.79326C9.59688 10.1839 9.59688 10.8151 9.20625 11.2058Z" fill="black"/>
</g>
<defs>
<clipPath id="clip0_6839_656">
<rect width="20" height="16" fill="white" transform="translate(4 6)"/>
</clipPath>
</defs>
</svg>
