<svg width="28" height="28" viewBox="0 0 28 28" fill="none" xmlns="http://www.w3.org/2000/svg">
<mask id="mask0_6839_571" style="mask-type:alpha" maskUnits="userSpaceOnUse" x="6" y="6" width="35" height="35">
<rect x="6.06665" y="6.02539" width="34" height="34" fill="#D9D9D9"/>
</mask>
<g mask="url(#mask0_6839_571)">
<path d="M12.2649 16.2491C12.0821 16.2491 11.931 16.1892 11.8117 16.0694C11.6919 15.9501 11.6319 15.799 11.6319 15.6162V11.8183C11.6319 11.6354 11.6919 11.4841 11.8117 11.3642C11.931 11.2449 12.0821 11.1853 12.2649 11.1853C12.4478 11.1853 12.5991 11.2449 12.719 11.3642C12.8383 11.4841 12.8979 11.6354 12.8979 11.8183V12.8732H14.5858V11.8183C14.5858 11.6354 14.6458 11.4841 14.7656 11.3642C14.8849 11.2449 15.036 11.1853 15.2188 11.1853C15.4017 11.1853 15.553 11.2449 15.6729 11.3642C15.7922 11.4841 15.8518 11.6354 15.8518 11.8183V15.6162C15.8518 15.799 15.7922 15.9501 15.6729 16.0694C15.553 16.1892 15.4017 16.2491 15.2188 16.2491C15.036 16.2491 14.8849 16.1892 14.7656 16.0694C14.6458 15.9501 14.5858 15.799 14.5858 15.6162V14.1392H12.8979V15.6162C12.8979 15.799 12.8383 15.9501 12.719 16.0694C12.5991 16.1892 12.4478 16.2491 12.2649 16.2491ZM6.7791 16.2491C6.59624 16.2491 6.44517 16.1892 6.32588 16.0694C6.20604 15.9501 6.14612 15.799 6.14612 15.6162V12.0293C6.14612 11.7901 6.22714 11.5896 6.38918 11.4275C6.55066 11.266 6.75096 11.1853 6.99009 11.1853H9.10002C9.43761 11.1853 9.733 11.3119 9.98619 11.5651C10.2394 11.8183 10.366 12.1137 10.366 12.4513V13.2952C10.366 13.6328 10.2394 13.9282 9.98619 14.1814C9.733 14.4346 9.43761 14.5612 9.10002 14.5612H7.41208V15.6162C7.41208 15.799 7.35215 15.9501 7.23231 16.0694C7.11303 16.1892 6.96196 16.2491 6.7791 16.2491ZM7.41208 13.2952H9.10002V12.4513H7.41208V13.2952ZM18.1727 16.2491C17.9899 16.2491 17.8385 16.1892 17.7187 16.0694C17.5994 15.9501 17.5397 15.799 17.5397 15.6162V12.0293C17.5397 11.7901 17.6208 11.5896 17.7828 11.4275C17.9443 11.266 18.1446 11.1853 18.3837 11.1853H20.4936C20.8312 11.1853 21.1266 11.3119 21.3798 11.5651C21.633 11.8183 21.7596 12.1137 21.7596 12.4513V13.2952C21.7596 13.6328 21.633 13.9282 21.3798 14.1814C21.1266 14.4346 20.8312 14.5612 20.4936 14.5612H18.8057V15.6162C18.8057 15.799 18.7461 15.9501 18.6268 16.0694C18.5069 16.1892 18.3556 16.2491 18.1727 16.2491ZM18.8057 13.2952H20.4936V12.4513H18.8057V13.2952Z" fill="#1C1B1F"/>
</g>
</svg>
