<svg width="28" height="28" viewBox="0 0 28 28" fill="none" xmlns="http://www.w3.org/2000/svg">
<g clip-path="url(#clip0_6839_671)">
<path d="M3.09883 20.7117C2.90547 21.0383 3.00859 21.4637 3.33516 21.6656L7.88555 24.4672C8.21641 24.6691 8.64609 24.5703 8.84805 24.2394C8.84805 24.2351 8.85234 24.2308 8.85234 24.2308C11.7355 19.4098 12.3113 20.1101 20.9223 24.2008C21.2703 24.3683 21.6871 24.218 21.8547 23.8699C21.859 23.8656 21.859 23.857 21.8633 23.8527L24.0289 18.95C24.1836 18.6019 24.0246 18.1937 23.6809 18.0348C22.727 17.5879 20.8363 16.6941 19.1305 15.8734C8.47852 10.6914 4.91641 17.8371 3.09883 20.7117ZM24.9012 7.30116C25.0945 6.97459 24.9914 6.5492 24.6648 6.34725L20.1188 3.54999C19.7965 3.33514 19.3625 3.41678 19.1477 3.73905C19.1391 3.75194 19.1305 3.76483 19.1219 3.78202C16.2301 8.6203 15.6371 7.88983 7.06484 3.82069C6.7168 3.65311 6.3 3.8035 6.13242 4.15155C6.12813 4.15585 6.12813 4.16444 6.12383 4.16874L3.95391 9.07147C3.79922 9.41952 3.9582 9.82772 4.30195 9.9867C5.25586 10.4336 7.15078 11.3273 8.85664 12.1523C19.5129 17.3086 23.0707 10.2015 24.9012 7.30116Z" fill="black"/>
</g>
<defs>
<clipPath id="clip0_6839_671">
<rect width="22" height="22" fill="white" transform="translate(3 3)"/>
</clipPath>
</defs>
</svg>
