<svg width="28" height="28" viewBox="0 0 28 28" fill="none" xmlns="http://www.w3.org/2000/svg">
<g clip-path="url(#clip0_6839_635)">
<path d="M23 7.125V9C23 10.7266 18.9701 12.125 14 12.125C9.02991 12.125 5 10.7266 5 9V7.125C5 5.39922 9.02991 4 14 4C18.9701 4 23 5.39922 23 7.125ZM20.7982 12.3867C21.5978 12.0977 22.4013 11.7266 23 11.2695V15.25C23 16.9766 18.9701 18.375 14 18.375C9.02991 18.375 5 16.9766 5 15.25V11.2695C5.59987 11.7266 6.36687 12.0977 7.20379 12.3867C9.0042 13.0117 11.4085 13.375 14 13.375C16.5915 13.375 18.9942 13.0117 20.7982 12.3867ZM7.20379 18.6367C9.0042 19.2617 11.4085 19.625 14 19.625C16.5915 19.625 18.9942 19.2617 20.7982 18.6367C21.5978 18.3477 22.4013 17.9766 23 17.5195V20.875C23 22.6016 18.9701 24 14 24C9.02991 24 5 22.6016 5 20.875V17.5195C5.59987 17.9766 6.36687 18.3477 7.20379 18.6367Z" fill="black"/>
</g>
<defs>
<clipPath id="clip0_6839_635">
<rect width="18" height="20" fill="white" transform="translate(5 4)"/>
</clipPath>
</defs>
</svg>
