<svg width="28" height="28" viewBox="0 0 28 28" fill="none" xmlns="http://www.w3.org/2000/svg">
<g clip-path="url(#clip0_6839_706)">
<path d="M5.61981 7.11608C5.61981 4.84283 7.51849 3 9.86065 3H17.1374C19.4795 3 21.3782 4.84283 21.3782 7.11608C21.3782 8.55552 20.6169 9.82241 19.4638 10.5581C20.6169 11.2938 21.3782 12.5606 21.3782 14.0001C21.3782 16.2733 19.4795 18.1162 17.1374 18.1162H17.0453C15.9473 18.1162 14.9467 17.7112 14.1936 17.0467V20.8392C14.1936 23.1428 12.2453 25 9.88349 25C7.54719 25 5.61981 23.1628 5.61981 20.8839C5.61981 19.4445 6.38103 18.1777 7.53405 17.442C6.38103 16.7063 5.61981 15.4395 5.61981 14.0001C5.61981 12.5606 6.38109 11.2938 7.53419 10.5581C6.38109 9.82241 5.61981 8.55552 5.61981 7.11608ZM12.8044 11.2323H9.86065C8.28568 11.2323 7.00893 12.4715 7.00893 14.0001C7.00893 15.5228 8.27583 16.7583 9.84241 16.7679C9.84847 16.7678 9.85454 16.7678 9.86065 16.7678H12.8044V11.2323ZM14.1936 14.0001C14.1936 15.5287 15.4703 16.7679 17.0453 16.7679H17.1374C18.7123 16.7679 19.9891 15.5287 19.9891 14.0001C19.9891 12.4715 18.7123 11.2323 17.1374 11.2323H17.0453C15.4703 11.2323 14.1936 12.4715 14.1936 14.0001ZM9.86065 18.1162C9.85454 18.1162 9.84847 18.1161 9.84241 18.1161C8.27583 18.1256 7.00893 19.3612 7.00893 20.8839C7.00893 22.4069 8.30274 23.6517 9.88349 23.6517C11.4897 23.6517 12.8044 22.3869 12.8044 20.8392V18.1162H9.86065ZM9.86065 4.34826C8.28568 4.34826 7.00893 5.58746 7.00893 7.11608C7.00893 8.64472 8.28568 9.88389 9.86065 9.88389H12.8044V4.34826H9.86065ZM14.1936 9.88389H17.1374C18.7123 9.88389 19.9891 8.64472 19.9891 7.11608C19.9891 5.58746 18.7123 4.34826 17.1374 4.34826H14.1936V9.88389Z" fill="black"/>
</g>
<defs>
<clipPath id="clip0_6839_706">
<rect width="17" height="22" fill="white" transform="translate(5 3)"/>
</clipPath>
</defs>
</svg>
