<svg width="28" height="28" viewBox="0 0 28 28" fill="none" xmlns="http://www.w3.org/2000/svg">
<path d="M12.1386 9.42459H8.42188C6.54688 8.93287 2.30516 9.06084 2.30516 12.9304C2.30516 14.3408 3.00828 15.3318 3.94578 15.7897C2.76922 16.8679 2.21141 17.3765 2.21141 18.0965C2.21141 18.6121 2.42094 19.0874 3.05 19.3532C2.38109 19.9818 2 20.4383 2 21.2962C2 22.8013 3.31484 23.6783 6.76391 23.6783C10.0803 23.6783 12.0041 22.4399 12.0041 20.248C12.0041 17.4983 9.88719 17.5996 4.89641 17.2949L5.52594 16.2847C6.80422 16.6401 11.09 16.7535 11.09 13.1024C11.09 12.2258 10.7277 11.616 10.3869 11.1772L12.1405 11.0441L12.1386 9.42459ZM9.16578 20.7637C9.16578 22.2665 4.24906 22.2683 4.24906 20.8776C4.24906 20.496 4.49609 20.1744 4.74453 19.8679C8.38719 20.1163 9.16578 20.0258 9.16578 20.7637ZM6.78406 14.4552C4.30906 14.4552 4.41875 11.1196 6.84031 11.1196C9.1625 11.1196 9.2225 14.4552 6.78406 14.4552ZM13.0325 19.1666V17.6619C14.2864 17.4904 14.3094 17.5682 14.3094 17.1463V11.5443C14.3094 11.1458 14.2133 11.1983 13.0325 10.7821L13.242 9.23897H17.1875V17.1472C17.1875 17.4524 17.2063 17.4904 17.4927 17.5288L18.4644 17.6619V19.1666H13.0325ZM15.4911 7.71459C14.405 7.71459 13.7759 7.08506 13.7759 5.9985C13.7759 4.91193 14.405 4.32178 15.4911 4.32178C16.5964 4.32178 17.2255 4.91334 17.2255 5.9985C17.2255 7.08365 16.5964 7.71459 15.4911 7.71459ZM26 18.4279C25.1802 18.8277 23.9797 19.1901 22.8931 19.1901C20.6253 19.1901 19.768 18.276 19.768 16.1216V11.129C19.768 10.8749 19.8172 10.9387 18.2816 10.9387V9.24225C19.9587 9.05147 20.6253 8.211 20.8348 6.13584H22.6456C22.6456 9.22162 22.5828 9.03318 22.7984 9.03318H25.4844V10.9387H22.6456V15.4926C22.6456 15.8169 22.415 17.9024 25.4848 16.7507L26 18.4279Z" fill="#03112F"/>
</svg>
