<svg width="28" height="28" viewBox="0 0 28 28" fill="none" xmlns="http://www.w3.org/2000/svg">
<path d="M2 2.6875V26.3125H26V2.6875H2ZM15.0607 21.1129C15.0607 23.4121 13.6893 24.4615 11.6911 24.4615C9.88571 24.4615 8.84107 23.5439 8.30536 22.4312L10.1429 21.3396C10.4964 21.9566 10.8179 22.4787 11.5946 22.4787C12.3339 22.4787 12.8054 22.1939 12.8054 21.0812V13.535H15.0607V21.1129ZM20.3964 24.4615C18.3018 24.4615 16.9464 23.4807 16.2875 22.1939L18.125 21.1498C18.6071 21.925 19.2393 22.4998 20.3482 22.4998C21.2804 22.4998 21.8804 22.041 21.8804 21.4029C21.8804 20.6436 21.2696 20.3746 20.2357 19.9264L19.6732 19.6891C18.0446 19.0088 16.9679 18.1492 16.9679 16.3404C16.9679 14.674 18.2589 13.4084 20.2679 13.4084C21.7036 13.4084 22.7321 13.8988 23.4714 15.1855L21.7143 16.293C21.3286 15.6127 20.9107 15.3437 20.2625 15.3437C19.6036 15.3437 19.1857 15.7551 19.1857 16.293C19.1857 16.9574 19.6036 17.2264 20.5732 17.643L21.1357 17.8803C23.0536 18.6871 24.1304 19.515 24.1304 21.3713C24.1304 23.3646 22.5339 24.4615 20.3964 24.4615Z" fill="black"/>
</svg>
