<svg width="28" height="28" viewBox="0 0 28 28" fill="none" xmlns="http://www.w3.org/2000/svg">
<g clip-path="url(#clip0_6839_687)">
<path d="M21.5625 4.375C21.9272 4.375 22.2769 4.51987 22.5348 4.77773C22.7926 5.03559 22.9375 5.38533 22.9375 5.75V22.25C22.9375 22.6147 22.7926 22.9644 22.5348 23.2223C22.2769 23.4801 21.9272 23.625 21.5625 23.625H6.4375C6.07283 23.625 5.72309 23.4801 5.46523 23.2223C5.20737 22.9644 5.0625 22.6147 5.0625 22.25V5.75C5.0625 5.38533 5.20737 5.03559 5.46523 4.77773C5.72309 4.51987 6.07283 4.375 6.4375 4.375H21.5625ZM6.4375 3C5.70815 3 5.00868 3.28973 4.49296 3.80546C3.97723 4.32118 3.6875 5.02065 3.6875 5.75V22.25C3.6875 22.9793 3.97723 23.6788 4.49296 24.1945C5.00868 24.7103 5.70815 25 6.4375 25H21.5625C22.2918 25 22.9913 24.7103 23.507 24.1945C24.0228 23.6788 24.3125 22.9793 24.3125 22.25V5.75C24.3125 5.02065 24.0228 4.32118 23.507 3.80546C22.9913 3.28973 22.2918 3 21.5625 3H6.4375Z" fill="black"/>
<path d="M11.9375 7.125C11.9375 6.76033 12.0824 6.41059 12.3402 6.15273C12.5981 5.89487 12.9478 5.75 13.3125 5.75H14.6875C15.0522 5.75 15.4019 5.89487 15.6598 6.15273C15.9176 6.41059 16.0625 6.76033 16.0625 7.125V11.25C16.0625 11.6147 15.9176 11.9644 15.6598 12.2223C15.4019 12.4801 15.0522 12.625 14.6875 12.625H13.3125C12.9478 12.625 12.5981 12.4801 12.3402 12.2223C12.0824 11.9644 11.9375 11.6147 11.9375 11.25V7.125ZM6.4375 7.125C6.4375 6.76033 6.58237 6.41059 6.84023 6.15273C7.09809 5.89487 7.44783 5.75 7.8125 5.75H9.1875C9.55217 5.75 9.90191 5.89487 10.1598 6.15273C10.4176 6.41059 10.5625 6.76033 10.5625 7.125V16.75C10.5625 17.1147 10.4176 17.4644 10.1598 17.7223C9.90191 17.9801 9.55217 18.125 9.1875 18.125H7.8125C7.44783 18.125 7.09809 17.9801 6.84023 17.7223C6.58237 17.4644 6.4375 17.1147 6.4375 16.75V7.125ZM17.4375 7.125C17.4375 6.76033 17.5824 6.41059 17.8402 6.15273C18.0981 5.89487 18.4478 5.75 18.8125 5.75H20.1875C20.5522 5.75 20.9019 5.89487 21.1598 6.15273C21.4176 6.41059 21.5625 6.76033 21.5625 7.125V20.875C21.5625 21.2397 21.4176 21.5894 21.1598 21.8473C20.9019 22.1051 20.5522 22.25 20.1875 22.25H18.8125C18.4478 22.25 18.0981 22.1051 17.8402 21.8473C17.5824 21.5894 17.4375 21.2397 17.4375 20.875V7.125Z" fill="black"/>
</g>
<defs>
<clipPath id="clip0_6839_687">
<rect width="22" height="22" fill="white" transform="translate(3 3)"/>
</clipPath>
</defs>
</svg>
