<svg width="28" height="28" viewBox="0 0 28 28" fill="none" xmlns="http://www.w3.org/2000/svg">
<g clip-path="url(#clip0_6839_624)">
<path d="M27.5844 6.33443C27.5801 6.32172 27.5749 6.3093 27.5691 6.29724C27.5612 6.27372 27.5515 6.25086 27.5401 6.22888C27.5312 6.21523 27.5213 6.20225 27.5105 6.19005C27.4985 6.17211 27.4854 6.15494 27.4712 6.13865C27.4586 6.12662 27.4427 6.11677 27.4291 6.10584C27.4135 6.0924 27.397 6.07998 27.3798 6.06865L22.1156 3.03787C22.0491 2.99947 21.9737 2.97925 21.8969 2.97925C21.8201 2.97925 21.7446 2.99947 21.6781 3.03787L16.4128 6.07029C16.3959 6.08174 16.3798 6.09435 16.3647 6.10802C16.3498 6.11804 16.3355 6.129 16.322 6.14084C16.3077 6.15683 16.2945 6.17382 16.2826 6.1917C16.2734 6.20482 16.2613 6.2163 16.2531 6.23052C16.2421 6.25262 16.2326 6.27546 16.2247 6.29888C16.2203 6.31146 16.2132 6.32295 16.2094 6.33607C16.1993 6.37316 16.1942 6.4114 16.1941 6.44982V12.2051L11.807 14.7311V3.46935C11.8071 3.43073 11.802 3.39228 11.7917 3.35505C11.7884 3.34193 11.7808 3.33044 11.7764 3.31787C11.7688 3.29453 11.7592 3.27186 11.748 3.25005C11.7403 3.23584 11.7277 3.22435 11.7184 3.21068C11.7064 3.19273 11.6932 3.17556 11.6791 3.15927C11.6654 3.1476 11.6512 3.13665 11.6364 3.12646C11.6211 3.11316 11.605 3.10075 11.5883 3.08927L6.32241 0.0584918C6.2559 0.0200932 6.18046 -0.00012207 6.10366 -0.00012207C6.02687 -0.00012207 5.95142 0.0200932 5.88491 0.0584918L0.620147 3.08927C0.603054 3.10045 0.586953 3.11307 0.572022 3.12701C0.55694 3.13702 0.54251 3.14798 0.528819 3.15982C0.514674 3.17582 0.501698 3.19282 0.489991 3.21068C0.480147 3.22435 0.468116 3.23584 0.459913 3.25005C0.448706 3.27183 0.439375 3.29451 0.432022 3.31787C0.426049 3.32977 0.420754 3.342 0.416163 3.35451C0.406102 3.39196 0.400954 3.43057 0.40085 3.46935V21.4998C0.40064 21.5768 0.420756 21.6525 0.459165 21.7192C0.497574 21.786 0.552916 21.8414 0.6196 21.8799L11.1469 27.9415C11.1703 27.9533 11.1947 27.9631 11.2197 27.971C11.2312 27.9754 11.2421 27.9819 11.2541 27.9852C11.3276 28.0049 11.4049 28.0049 11.4783 27.9852C11.4893 27.9825 11.4986 27.9765 11.5084 27.9732C11.5348 27.9649 11.5605 27.9543 11.585 27.9415L22.1156 21.8799C22.1823 21.8414 22.2376 21.786 22.2761 21.7192C22.3145 21.6525 22.3346 21.5768 22.3344 21.4998V15.7434L27.3787 12.839C27.4458 12.8002 27.5014 12.7444 27.5399 12.6771C27.5783 12.6099 27.5982 12.5336 27.5975 12.4561V6.44873C27.5978 6.41023 27.5934 6.37185 27.5844 6.33443ZM6.10312 0.944976L10.4885 3.4688L6.10257 5.99427L1.71773 3.46935L6.10312 0.944976ZM10.9293 4.22623V15.2359L8.38468 16.701L6.54226 17.7619V6.75388L9.08687 5.2888L10.9293 4.22623ZM10.9293 26.8001L1.27804 21.2461V4.22841L3.12046 5.28826L5.66452 6.75388V18.5215C5.66563 18.5381 5.66782 18.5545 5.67108 18.5708C5.67239 18.5925 5.67532 18.614 5.67983 18.6353C5.68539 18.6522 5.69234 18.6687 5.70062 18.6845C5.70671 18.7034 5.71439 18.7217 5.72358 18.7392C5.73369 18.754 5.74465 18.7683 5.7564 18.7819C5.76734 18.798 5.7794 18.8133 5.79249 18.8278C5.80507 18.8398 5.82093 18.8486 5.8346 18.8595C5.84953 18.8725 5.86524 18.8845 5.88163 18.8956L10.9233 21.7492L10.9293 26.8001ZM11.3668 20.994L6.98851 18.5155L11.5872 15.8681L16.6326 12.9636L21.0148 15.4864L17.7991 17.3217L11.3668 20.994ZM21.4577 21.2439L11.8059 26.8029V21.7547L18.9547 17.675L21.4577 16.2449V21.2439ZM21.4577 14.729L19.6153 13.6719L17.0707 12.2068V7.20724L18.9131 8.26818L21.4577 9.73435V14.729ZM21.8952 8.97146L17.5093 6.44654L21.8952 3.92216L26.2801 6.44599L21.8952 8.97146ZM22.3327 14.729V9.73435L24.8828 8.26818L26.7247 7.20724V12.2051L22.3327 14.729Z" fill="black"/>
</g>
<defs>
<clipPath id="clip0_6839_624">
<rect width="28" height="28" fill="white"/>
</clipPath>
</defs>
</svg>
