<svg width="28" height="28" viewBox="0 0 28 28" fill="none" xmlns="http://www.w3.org/2000/svg">
<path d="M9.325 8.09375C9.325 9.18008 8.46219 10.0625 7.4 10.0625C6.33678 10.0625 5.475 9.18008 5.475 8.09375C5.475 7.00637 6.33678 6.125 7.4 6.125C8.46219 6.125 9.325 7.00637 9.325 8.09375ZM10.1638 11.9012C9.14281 12.8293 8.5 14.1828 8.5 15.6875C8.5 16.8934 8.88156 18.0008 9.6 18.8691V19.625C9.6 20.2473 9.10844 20.75 8.5 20.75H6.3C5.69259 20.75 5.2 20.2473 5.2 19.625V18.6828C3.89925 18.05 3 16.6965 3 15.125C3 12.9488 4.72356 11.1875 6.85 11.1875H7.95C8.74406 11.1875 9.53813 11.4512 10.1638 11.9012ZM5.2 13.6379C4.85763 14.0316 4.65 14.5555 4.65 15.125C4.65 15.6945 4.85763 16.2184 5.2 16.6121V13.6379ZM18.4 19.625V18.8691C19.0875 18.0008 19.5 16.8934 19.5 15.6875C19.5 14.1828 18.8572 12.8293 17.8363 11.9012C18.4619 11.4512 19.225 11.1875 20.05 11.1875H21.15C23.2778 11.1875 25 12.9488 25 15.125C25 16.6965 24.0994 18.05 22.8 18.6828V19.625C22.8 20.2473 22.3084 20.75 21.7 20.75H19.5C18.8916 20.75 18.4 20.2473 18.4 19.625ZM22.8 16.6121C23.1128 16.2184 23.35 15.6945 23.35 15.125C23.35 14.5555 23.1128 14.0316 22.8 13.6379V16.6121ZM22.525 8.09375C22.525 9.18008 21.6622 10.0625 20.6 10.0625C19.5378 10.0625 18.675 9.18008 18.675 8.09375C18.675 7.00637 19.5378 6.125 20.6 6.125C21.6622 6.125 22.525 7.00637 22.525 8.09375ZM11.8 8.375C11.8 7.13223 12.7866 6.125 14 6.125C15.2134 6.125 16.2 7.13223 16.2 8.375C16.2 9.61602 15.2134 10.625 14 10.625C12.7866 10.625 11.8 9.61602 11.8 8.375ZM18.4 15.6875C18.4 17.259 17.4994 18.6125 16.2 19.2453V20.75C16.2 21.3723 15.7084 21.875 15.1 21.875H12.9C12.2916 21.875 11.8 21.3723 11.8 20.75V19.2453C10.5006 18.6125 9.6 17.259 9.6 15.6875C9.6 13.5113 11.3222 11.75 13.45 11.75H14.55C16.6778 11.75 18.4 13.5113 18.4 15.6875ZM11.8 17.1746V14.2004C11.4563 14.5941 11.25 15.118 11.25 15.6875C11.25 16.257 11.4563 16.7809 11.8 17.1746ZM16.2 14.2004V17.1746C16.5128 16.7773 16.75 16.257 16.75 15.6875C16.75 15.118 16.5128 14.5941 16.2 14.2004Z" fill="black"/>
</svg>
