<svg width="28" height="28" viewBox="0 0 28 28" fill="none" xmlns="http://www.w3.org/2000/svg">
<g clip-path="url(#clip0_6839_550)">
<path d="M13.8286 7.50216C13.8821 7.52853 13.925 7.59181 13.9893 7.59181C14.0482 7.59181 14.1393 7.57072 14.1446 7.51271C14.1554 7.43888 14.0429 7.39142 13.9732 7.35978C13.8821 7.32287 13.7643 7.30705 13.6786 7.35451C13.6571 7.36505 13.6357 7.39142 13.6464 7.41252C13.6625 7.48107 13.7696 7.47052 13.8286 7.50216ZM12.6554 7.59181C12.7196 7.59181 12.7625 7.52853 12.8161 7.50216C12.875 7.47052 12.9821 7.48107 13.0036 7.41779C13.0143 7.39669 12.9929 7.37033 12.9714 7.35978C12.8857 7.31232 12.7679 7.32814 12.6768 7.36505C12.6071 7.39669 12.4946 7.44416 12.5054 7.51798C12.5107 7.57072 12.6018 7.59709 12.6554 7.59181ZM24.5 22.2942C24.3071 22.0832 24.2161 21.6824 24.1143 21.2553C24.0179 20.8281 23.9054 20.3694 23.5518 20.074C23.4821 20.016 23.4125 19.9633 23.3375 19.9211C23.2679 19.8789 23.1929 19.842 23.1179 19.8156C23.6107 18.376 23.4179 16.9416 22.9196 15.6444C22.3089 14.057 21.2429 12.6701 20.4286 11.7209C19.5125 10.5871 18.6232 9.51134 18.6393 7.92404C18.6661 5.50353 18.9125 1.00529 14.5786 1.00002C9.09286 0.989468 10.4643 6.45275 10.4054 8.1297C10.3143 9.36369 10.0625 10.334 9.2 11.5416C8.1875 12.7281 6.7625 14.6424 6.0875 16.641C5.76607 17.585 5.61607 18.5447 5.75536 19.4518C5.40714 19.7576 5.14464 20.227 4.86607 20.517C4.64107 20.7438 4.31428 20.8281 3.95536 20.9547C3.59643 21.0813 3.20536 21.2711 2.96428 21.7194C2.85178 21.925 2.81428 22.1465 2.81428 22.3733C2.81428 22.5789 2.84643 22.7899 2.87857 22.9955C2.94286 23.4227 3.0125 23.8235 2.92143 24.0924C2.64286 24.8518 2.60536 25.3791 2.80357 25.7641C3.00714 26.149 3.41428 26.3178 3.88036 26.4127C4.80714 26.6026 6.06607 26.5551 7.05714 27.0719C8.11786 27.6203 9.19464 27.8154 10.0518 27.6203C10.6732 27.4832 11.1821 27.1141 11.4393 26.5551C12.1089 26.5498 12.8482 26.2703 14.0268 26.207C14.825 26.1438 15.8268 26.4865 16.9786 26.4233C17.0107 26.5445 17.0536 26.6658 17.1125 26.7766V26.7819C17.5571 27.6625 18.3875 28.0633 19.2714 27.9947C20.1607 27.9262 21.0982 27.4147 21.8589 26.5235C22.5875 25.6586 23.7875 25.3 24.5857 24.8254C24.9821 24.5881 25.3036 24.2928 25.3304 23.8604C25.3518 23.4279 25.0946 22.9481 24.5 22.2942ZM13.9839 5.60373C14.5089 4.43302 15.8161 4.45412 16.3411 5.58263C16.6893 6.33146 16.5339 7.21212 16.1107 7.7131C16.025 7.67091 15.7946 7.57599 15.4357 7.4547C15.4946 7.39142 15.6018 7.31232 15.6446 7.21212C15.9018 6.58986 15.6339 5.7883 15.1571 5.77248C14.7661 5.74611 14.4125 6.34201 14.525 6.98537C14.3054 6.8799 14.0214 6.8008 13.8286 6.75334C13.775 6.38947 13.8125 5.98341 13.9839 5.60373ZM11.8036 4.99728C12.3446 4.99728 12.9179 5.74611 12.8268 6.76388C12.6393 6.81662 12.4464 6.89572 12.2804 7.00646C12.3446 6.53712 12.1036 5.9465 11.7661 5.97287C11.3161 6.00978 11.2411 7.09084 11.6696 7.4547C11.7232 7.49689 11.7714 7.44416 11.3536 7.74474C10.5179 6.97482 10.7911 4.99728 11.8036 4.99728ZM11.075 8.19826C11.4071 7.95568 11.8036 7.67091 11.8304 7.64455C12.0821 7.41252 12.5536 6.89572 13.325 6.89572C13.7054 6.89572 14.1607 7.01701 14.7125 7.36505C15.05 7.58126 15.3179 7.59709 15.9232 7.85548C16.3732 8.04005 16.6571 8.36701 16.4857 8.81525C16.3464 9.18966 15.8964 9.57463 15.2696 9.76974C14.675 9.95959 14.2089 10.6135 13.2232 10.5555C13.0143 10.5449 12.8482 10.5028 12.7089 10.4447C12.2804 10.2602 12.0554 9.89631 11.6375 9.65373C11.1768 9.4006 10.9304 9.10529 10.85 8.84689C10.775 8.58849 10.85 8.37228 11.075 8.19826ZM11.2518 25.8115C11.1071 27.6625 8.9 27.6256 7.21786 26.7608C5.61607 25.9276 3.54286 26.418 3.11964 25.6059C2.99107 25.358 2.99107 24.9361 3.25893 24.2137V24.2031C3.3875 23.8024 3.29107 23.3594 3.22678 22.9428C3.1625 22.5315 3.13036 22.1518 3.275 21.8881C3.4625 21.5348 3.73036 21.4082 4.06786 21.2922C4.61964 21.0971 4.7 21.1129 5.11786 20.7701C5.4125 20.4695 5.62678 20.0899 5.88393 19.8209C6.15714 19.5309 6.41964 19.3938 6.83214 19.457C7.26607 19.5203 7.64107 19.8156 8.00536 20.3008L9.05536 22.1781C9.56428 23.2276 11.3643 24.7305 11.2518 25.8115ZM11.1768 24.4457C10.9571 24.0977 10.6625 23.7285 10.4054 23.4121C10.7857 23.4121 11.1661 23.2961 11.3 22.9428C11.4232 22.6158 11.3 22.157 10.9036 21.6297C10.1804 20.6699 8.85178 19.9158 8.85178 19.9158C8.12857 19.4729 7.72143 18.9297 7.53393 18.3391C7.34643 17.7485 7.37321 17.1104 7.51786 16.4828C7.79643 15.2752 8.51428 14.0992 8.975 13.361C9.09821 13.2713 9.01786 13.5297 8.50893 14.4578C8.05357 15.3069 7.20178 17.2686 8.36964 18.8031C8.40178 17.7115 8.66428 16.5988 9.10893 15.56C9.75178 14.1151 11.1071 11.6102 11.2143 9.61681C11.2732 9.659 11.4607 9.78556 11.5464 9.83302C11.7929 9.97541 11.9804 10.1863 12.2214 10.3762C12.8857 10.9035 13.7482 10.8613 14.4929 10.4395C14.825 10.2549 15.0929 10.044 15.3446 9.96486C15.875 9.80138 16.2982 9.51134 16.5393 9.17384C16.9518 10.777 17.9161 13.092 18.5321 14.2205C18.8589 14.8217 19.5125 16.0926 19.7964 17.6272C19.9732 17.6219 20.1714 17.6483 20.3804 17.701C21.1196 15.8184 19.7536 13.7881 19.1321 13.2238C18.8804 12.9813 18.8696 12.8758 18.9929 12.8811C19.6679 13.4717 20.5571 14.6582 20.8786 15.9924C21.0286 16.6041 21.0554 17.2422 20.9 17.875C21.7786 18.2336 22.8232 18.819 22.5446 19.7102C22.4268 19.7049 22.3732 19.7102 22.3196 19.7102C22.4911 19.1776 22.1107 18.782 21.0982 18.3338C20.0482 17.8803 19.1696 17.8803 19.0464 18.993C18.3982 19.2145 18.0661 19.7682 17.9 20.4326C17.75 21.0233 17.7071 21.7352 17.6643 22.5367C17.6375 22.9428 17.4714 23.486 17.3 24.066C15.5804 25.2736 13.1911 25.801 11.1768 24.4457ZM24.9661 23.8393C24.9179 24.7252 22.7589 24.8887 21.5804 26.2914C20.8732 27.1194 20.0054 27.5781 19.2446 27.6361C18.4839 27.6942 17.825 27.383 17.4393 26.6184C17.1875 26.033 17.3107 25.4002 17.4982 24.7041C17.6964 23.9553 17.9911 23.1854 18.0286 22.5631C18.0714 21.7615 18.1196 21.0602 18.2536 20.5223C18.3929 19.9791 18.6071 19.6152 18.9875 19.4096C19.0036 19.399 19.025 19.3938 19.0411 19.3832C19.0839 20.0793 19.4321 20.786 20.0482 20.9389C20.7232 21.1129 21.6929 20.5434 22.1054 20.0793C22.5875 20.0635 22.9464 20.0319 23.3161 20.3483C23.8464 20.7965 23.6964 21.9461 24.2321 22.542C24.8 23.1537 24.9821 23.5703 24.9661 23.8393ZM11.2839 8.84162C11.3911 8.94181 11.5357 9.07892 11.7125 9.21603C12.0661 9.49025 12.5589 9.77501 13.175 9.77501C13.7964 9.77501 14.3804 9.46388 14.8786 9.20548C15.1411 9.06837 15.4625 8.83634 15.6714 8.65705C15.8804 8.47775 15.9875 8.32482 15.8375 8.309C15.6875 8.29318 15.6982 8.44611 15.5161 8.57794C15.2804 8.7467 14.9964 8.96818 14.7714 9.09474C14.375 9.31623 13.7268 9.63263 13.1696 9.63263C12.6125 9.63263 12.1679 9.37951 11.8357 9.12111C11.6696 8.98927 11.5304 8.85744 11.4232 8.75724C11.3429 8.68341 11.3214 8.51466 11.1929 8.49884C11.1179 8.49357 11.0964 8.69396 11.2839 8.84162Z" fill="#03112F"/>
</g>
<defs>
<clipPath id="clip0_6839_550">
<rect width="24" height="27" fill="white" transform="translate(2 1)"/>
</clipPath>
</defs>
</svg>
