<svg width="28" height="28" viewBox="0 0 28 28" fill="none" xmlns="http://www.w3.org/2000/svg">
<g clip-path="url(#clip0_6839_565)">
<path d="M19.1406 6.62204C19.0041 6.62204 18.9131 6.64041 18.8213 6.66316V6.67716H18.8353C18.8991 6.79529 19.0041 6.88716 19.0855 6.99654C19.1494 7.11991 19.2036 7.24679 19.2631 7.37016L19.2815 7.35179C19.3909 7.27391 19.446 7.15141 19.446 6.96416C19.4005 6.90904 19.3909 6.85041 19.3506 6.79966C19.3051 6.72179 19.2045 6.68154 19.1406 6.62204ZM6.73138 22.0159H5.65163C5.61893 20.2973 5.51413 18.5808 5.3375 16.8709H5.32875L3.68375 22.0159H2.85863L1.22675 16.8709H1.21275C1.08593 18.5833 1.01007 20.299 0.985251 22.0159H0.000875473C0.0541771 19.8583 0.213913 17.7046 0.479501 15.5628H1.81913L3.3775 20.3027H3.38625L4.95863 15.5628H6.23438C6.517 17.9148 6.68588 20.0655 6.73575 22.0159H6.73138ZM11.4161 17.2542C10.9786 19.642 10.395 21.3789 9.68013 22.4587C9.11488 23.2925 8.49975 23.7117 7.8295 23.7117C7.65188 23.7117 7.43313 23.6565 7.16888 23.5472V22.9732C7.301 22.9915 7.4515 23.0047 7.62038 23.0047C7.9345 23.0047 8.18563 22.9137 8.37725 22.7448C8.60475 22.5348 8.71938 22.2985 8.71938 22.0387C8.71938 21.8567 8.63275 21.4918 8.45075 20.9362L7.27038 17.2542H8.33263L9.1805 20.0069C9.37213 20.636 9.45438 21.0692 9.41763 21.3194C9.88663 20.0795 10.2104 18.7215 10.3933 17.2542H11.4161ZM25.7985 22.0159H22.7273V15.5628H23.7615V21.2232H25.7985V22.0159ZM21.9249 22.1717L20.7401 21.588C20.8451 21.5014 20.9449 21.406 21.0368 21.2967C21.5425 20.7087 21.7936 19.8293 21.7936 18.6717C21.7936 16.534 20.9554 15.4683 19.278 15.4683C18.4573 15.4683 17.815 15.7369 17.3548 16.2794C16.8534 16.8718 16.5979 17.7468 16.5979 18.9C16.5979 20.0349 16.821 20.8644 17.2681 21.3973C17.6785 21.8715 18.2936 22.113 19.1188 22.113C19.4241 22.113 19.7068 22.0763 19.9623 21.9993L21.5075 22.9014L21.931 22.1725L21.9249 22.1717ZM18.0836 20.7218C17.8194 20.3027 17.6916 19.628 17.6916 18.6979C17.6916 17.0713 18.1843 16.2602 19.173 16.2602C19.6884 16.2602 20.0708 16.4562 20.3123 16.8438C20.5721 17.2673 20.7043 17.9332 20.7043 18.8537C20.7043 20.4899 20.2073 21.315 19.2229 21.315C18.7031 21.315 18.3251 21.119 18.0793 20.7314L18.0836 20.7218ZM16.1508 20.23C16.1508 20.7769 15.9504 21.2284 15.5444 21.574C15.1436 21.9249 14.6099 22.1025 13.9309 22.1025C13.2974 22.1025 12.691 21.9022 12.0943 21.5005L12.3725 20.9449C12.8826 21.2004 13.3429 21.3282 13.7629 21.3282C14.1505 21.3282 14.4559 21.2415 14.6746 21.0727C14.8934 20.8994 15.0255 20.6579 15.0255 20.3525C15.0255 19.9693 14.7569 19.6412 14.2686 19.3682C13.8171 19.1179 12.9106 18.6025 12.9106 18.6025C12.418 18.2429 12.1765 17.8597 12.1765 17.2262C12.1765 16.702 12.3585 16.2829 12.7234 15.9635C13.0926 15.6354 13.5616 15.4762 14.1453 15.4762C14.7259 15.4711 15.2951 15.6376 15.7815 15.9548L15.5313 16.5104C15.1403 16.3382 14.7185 16.2469 14.2914 16.2418C13.9589 16.2418 13.7034 16.324 13.5258 16.4833C13.3481 16.6425 13.2388 16.8429 13.2388 17.094C13.2388 17.4773 13.5126 17.8054 14.0131 18.0872C14.4734 18.3374 15.3983 18.8668 15.3983 18.8668C15.904 19.222 16.1551 19.6053 16.1551 20.2292L16.1508 20.23ZM27.0935 13.3989C26.4688 13.3849 25.9858 13.4488 25.5806 13.622C25.4669 13.6675 25.2796 13.6675 25.2613 13.8137C25.3251 13.8775 25.3339 13.9782 25.389 14.0639C25.4844 14.2188 25.6445 14.4288 25.795 14.5382C25.9595 14.6659 26.1231 14.7937 26.292 14.903C26.5974 15.0903 26.9395 15.1997 27.2396 15.386C27.4085 15.4954 27.5818 15.6363 27.7498 15.7509C27.8364 15.8104 27.8906 15.9154 28 15.9513V15.9285C27.9449 15.8603 27.9318 15.7597 27.8766 15.6783C27.7988 15.6004 27.7218 15.5322 27.6439 15.4552C27.4157 15.1522 27.1421 14.8863 26.8328 14.6668C26.5825 14.4979 26.0356 14.2608 25.935 13.9738L25.921 13.9554C26.0899 13.9414 26.2903 13.8775 26.4539 13.832C26.7181 13.7638 26.964 13.7769 27.2379 13.7087C27.3635 13.6761 27.4881 13.6396 27.6115 13.5993V13.531C27.4706 13.3902 27.3656 13.1985 27.2195 13.0664C26.8168 12.7141 26.3871 12.394 25.9341 12.1092C25.6883 11.9499 25.3785 11.8493 25.1186 11.7172C25.0276 11.6717 24.8684 11.6489 24.8176 11.571C24.6768 11.3978 24.5945 11.1747 24.4939 10.969C24.265 10.5242 24.0522 10.0712 23.856 9.61104C23.7151 9.30566 23.6329 9.00466 23.4596 8.72204C22.6573 7.39554 21.7823 6.59404 20.4426 5.80566C20.1556 5.64116 19.8091 5.57291 19.4443 5.48629C19.2483 5.47754 19.0566 5.46354 18.8606 5.45479C18.7329 5.39966 18.6104 5.25441 18.501 5.18091C18.0548 4.89829 16.9059 4.29191 16.5821 5.09429C16.3721 5.60441 16.8919 6.10141 17.0748 6.35691C17.2069 6.53891 17.3758 6.74016 17.4711 6.94054C17.5263 7.07704 17.5394 7.21879 17.5945 7.35966C17.7179 7.70179 17.836 8.08416 18.0005 8.40354C18.0871 8.56804 18.1781 8.74041 18.2875 8.88654C18.3514 8.97316 18.4608 9.00991 18.4835 9.15079C18.3741 9.31004 18.3654 9.54279 18.3059 9.73441C18.0233 10.6182 18.1326 11.7075 18.529 12.3594C18.6568 12.5554 18.9525 12.9842 19.3498 12.8197C19.7006 12.6788 19.6236 12.236 19.7234 11.844C19.7461 11.7487 19.7321 11.6892 19.7785 11.6253V11.6437C19.8923 11.8624 20.0016 12.0724 20.1023 12.2912C20.3394 12.6744 20.7629 13.0708 21.1138 13.335C21.301 13.4759 21.4463 13.7183 21.679 13.804V13.7813H21.6606C21.6108 13.713 21.5469 13.6807 21.483 13.6264C21.3352 13.48 21.1981 13.3233 21.0726 13.1574C20.7489 12.7199 20.4575 12.2369 20.202 11.7399C20.0789 11.4943 19.9665 11.2436 19.8651 10.9883C19.8196 10.8973 19.8196 10.7555 19.7418 10.71C19.6236 10.8789 19.4504 11.0242 19.3681 11.2385C19.2176 11.571 19.2036 11.9858 19.145 12.4145C19.1179 12.4233 19.131 12.4145 19.1179 12.4329C18.8676 12.369 18.781 12.1135 18.6891 11.8948C18.452 11.3392 18.4153 10.4502 18.6165 9.81228C18.6716 9.64779 18.9035 9.13329 18.8125 8.97841C18.7626 8.82791 18.6078 8.74128 18.5255 8.62316C18.4205 8.47703 18.3155 8.29066 18.2429 8.12616C18.0556 7.68866 17.9646 7.20566 17.7599 6.76816C17.6689 6.56779 17.5044 6.35779 17.3723 6.17141C17.2218 5.96141 17.0581 5.81179 16.9435 5.56504C16.9024 5.47841 16.8481 5.33754 16.912 5.24566C16.926 5.18179 16.9575 5.15904 17.0214 5.14066C17.122 5.05404 17.4134 5.16341 17.514 5.21329C17.801 5.32704 18.0425 5.43641 18.284 5.60091C18.3934 5.67879 18.5115 5.82404 18.6533 5.86516H18.8178C19.068 5.92029 19.3463 5.87916 19.579 5.95179C19.9938 6.08391 20.3674 6.27553 20.7043 6.48466C21.7345 7.14598 22.5722 8.06706 23.1333 9.15516C23.2286 9.33279 23.2698 9.49729 23.3564 9.68366C23.5156 10.0713 23.7213 10.458 23.8849 10.8273C24.0485 11.1965 24.2043 11.5702 24.4405 11.8755C24.5586 12.04 25.0241 12.1258 25.2376 12.208C25.3925 12.2807 25.634 12.3445 25.7705 12.4268C26.0391 12.5913 26.3034 12.7777 26.5545 12.9597C26.6823 13.0463 27.0699 13.2423 27.0926 13.3972L27.0935 13.3989Z" fill="black"/>
</g>
<defs>
<clipPath id="clip0_6839_565">
<rect width="28" height="28" fill="white"/>
</clipPath>
</defs>
</svg>
