<svg width="28" height="28" viewBox="0 0 28 28" fill="none" xmlns="http://www.w3.org/2000/svg">
<path d="M14 6.69463C21.4987 6.69463 27.265 9.93799 27.265 13.5003C27.265 17.0626 21.4944 20.306 14 20.306C6.50125 20.306 0.735 17.0626 0.735 13.5003C0.735 9.93799 6.50562 6.69463 14 6.69463ZM14 5.93994C6.26937 5.93994 0 9.32256 0 13.5003C0 17.678 6.26937 21.0606 14 21.0606C21.7306 21.0606 28 17.678 28 13.5003C28 9.32256 21.7306 5.93994 14 5.93994ZM9.54625 12.8938C9.20062 14.7132 7.98 14.5245 6.47938 14.5245L7.07875 11.353C8.74125 11.353 9.87 11.1688 9.54625 12.8938ZM4.26125 17.7364H5.86688L6.2475 15.7239C8.04562 15.7239 9.16125 15.8587 10.1937 14.8659C11.3356 13.7878 11.6331 11.8696 10.8194 10.9083C10.395 10.4052 9.7125 10.1581 8.785 10.1581H5.69187L4.26125 17.7364ZM12.3856 8.14111H13.9825L13.6019 10.1536C14.98 10.1536 16.2575 10.0503 16.8744 10.6343C17.5219 11.2452 17.2113 12.0269 16.5112 15.7149H14.8925C15.5662 12.1481 15.6931 11.8517 15.4481 11.5821C15.2119 11.3216 14.6737 11.3755 13.3744 11.3755L12.5519 15.7149H10.955L12.3856 8.14111ZM22.0938 12.8938C21.7437 14.7401 20.4881 14.5245 19.0269 14.5245L19.6262 11.353C21.2975 11.353 22.4175 11.1688 22.0938 12.8938ZM16.8088 17.7364H18.4187L18.7994 15.7239C20.6894 15.7239 21.735 15.8362 22.7456 14.8659C23.8875 13.7878 24.185 11.8696 23.3713 10.9083C22.9469 10.4052 22.2644 10.1581 21.3369 10.1581H18.2437L16.8088 17.7364Z" fill="black"/>
</svg>
