<svg width="28" height="28" viewBox="0 0 28 28" fill="none" xmlns="http://www.w3.org/2000/svg">
<g clip-path="url(#clip0_6839_694)">
<path d="M10.5275 9.50917V9.46333C10.5275 8.63 9.97167 8.21333 9.04583 8.21333H7.6575V10.76H9.0925C10.0183 10.7592 10.5275 10.2033 10.5275 9.50917ZM4 4V24H24V4H4ZM5.80583 6.5925H9.18583C11.1767 6.5925 12.38 7.75 12.38 9.46333V9.50917C12.38 11.4533 10.8983 12.4258 9 12.4258H7.61083V14.9258H5.80583V6.5925ZM13.3983 21.5H5.89833V20.25H13.3983V21.5ZM19.4167 12.5183C19.4167 14.185 18.1667 15.1108 16.3608 15.1108C15.1108 15.0642 13.8608 14.6017 12.8425 13.7217L13.9075 12.425C14.6492 13.0267 15.435 13.4433 16.4075 13.4433C17.1483 13.4433 17.6108 13.1658 17.6108 12.6567V12.61C17.6108 12.1475 17.3333 11.9158 15.9442 11.5458C14.2775 11.1292 13.1667 10.6667 13.1667 9V8.95333C13.1667 7.42583 14.37 6.45333 16.0833 6.45333C17.2867 6.45333 18.3525 6.82333 19.1858 7.51833L18.2133 8.9075C17.4725 8.39833 16.7325 8.07417 16.0375 8.07417C15.3433 8.07417 14.9725 8.39833 14.9725 8.815V8.86167C14.9725 9.4175 15.3433 9.6025 16.7783 9.9725C18.445 10.4358 19.4175 11.0375 19.4175 12.4725V12.5183H19.4167Z" fill="black"/>
</g>
<defs>
<clipPath id="clip0_6839_694">
<rect width="20" height="20" fill="white" transform="translate(4 4)"/>
</clipPath>
</defs>
</svg>
