<svg width="28" height="28" viewBox="0 0 28 28" fill="none" xmlns="http://www.w3.org/2000/svg">
<g clip-path="url(#clip0_6839_645)">
<path d="M15.527 2.09822C8.95325 1.25822 2.94125 5.89847 2.09825 12.473C1.25825 19.0467 5.8985 25.0587 12.473 25.9017C19.0468 26.7417 25.0588 22.1015 25.898 15.527C26.7418 8.95322 22.1023 2.94122 15.527 2.09822ZM17.996 9.58622C17.7733 9.58622 17.5618 9.67622 17.4058 9.83597L12.953 14.285L12.6448 13.9797L12.0035 13.3355C16.3903 8.96072 17.1838 8.91722 17.9953 9.58547L17.996 9.58622ZM13.1368 14.4447L17.5738 10.004C17.6322 9.94304 17.7025 9.89462 17.7802 9.86166C17.858 9.8287 17.9416 9.81188 18.0261 9.81223C18.1105 9.81258 18.194 9.83009 18.2715 9.8637C18.349 9.8973 18.4188 9.9463 18.4768 10.0077C18.5343 10.0692 18.5787 10.1417 18.6073 10.2209C18.6358 10.3001 18.6479 10.3844 18.6428 10.4684C18.6377 10.5524 18.6154 10.6345 18.5775 10.7097C18.5395 10.7849 18.4866 10.8515 18.422 10.9055L13.7233 15.0305L13.1368 14.4447ZM13.4653 15.1407L12.3635 15.3785C12.3502 15.3803 12.3366 15.3779 12.3248 15.3715C12.3129 15.3652 12.3034 15.3553 12.2975 15.3432C12.2915 15.3317 12.2894 15.3184 12.2916 15.3056C12.2937 15.2927 12.3 15.2809 12.3095 15.272L12.9538 14.6277L13.4653 15.1407ZM10.6603 14.6802L11.8363 13.508L12.7153 14.387L10.7345 14.8122C10.7178 14.8166 10.7002 14.8152 10.6844 14.8081C10.6687 14.8009 10.656 14.7886 10.6483 14.7732C10.6397 14.7586 10.6362 14.7415 10.6383 14.7247C10.6405 14.7078 10.6482 14.6922 10.6603 14.6802ZM7.016 20.738C6.97325 20.7342 6.941 20.6952 6.94475 20.6562C6.94792 20.6385 6.95627 20.622 6.96875 20.609H6.9725L7.9175 19.664L9.14075 20.8872L7.016 20.738ZM9.44075 19.4802C9.39581 19.5046 9.36007 19.543 9.33895 19.5896C9.31783 19.6362 9.3125 19.6883 9.32375 19.7382L9.527 20.6022C9.55925 20.7275 9.40625 20.8122 9.31625 20.7192H9.3125L8.08625 19.4922L11.8483 15.734L13.6685 15.3402L14.5393 16.2155C13.2853 17.3165 11.57 18.4145 9.4415 19.4802H9.44075ZM14.7193 16.055L13.8793 15.215L18.578 11.09C18.6208 11.051 18.6598 11.0082 18.695 10.9647C18.551 12.3087 16.6678 14.207 14.7193 16.055ZM18.3793 9.59372H18.3755C16.7383 7.94897 19.0513 5.42147 20.8325 6.90572L19.2238 8.51972C19.2125 8.53094 19.2036 8.54427 19.1975 8.55894C19.1914 8.57361 19.1883 8.58934 19.1883 8.60522C19.1883 8.62111 19.1914 8.63684 19.1975 8.65151C19.2036 8.66618 19.2125 8.67951 19.2238 8.69072L20.4695 9.93797C20.129 10.1069 19.744 10.1646 19.3689 10.1028C18.9938 10.041 18.6476 9.86294 18.3793 9.59372ZM20.9533 9.59372C20.8717 9.676 20.7814 9.74918 20.684 9.81197L19.4773 8.60522L21.008 7.06997C21.3268 7.41619 21.4991 7.87238 21.4889 8.34288C21.4787 8.81337 21.2867 9.26165 20.9533 9.59372ZM20.855 8.05097C20.8309 8.06816 20.8128 8.0924 20.8031 8.12036C20.7934 8.14831 20.7927 8.17858 20.801 8.20697C20.8374 8.27864 20.8519 8.35939 20.8428 8.43924C20.8338 8.51909 20.8015 8.59453 20.75 8.65622C20.7381 8.67065 20.7293 8.68733 20.724 8.70525C20.7187 8.72318 20.7171 8.74199 20.7193 8.76055C20.7215 8.77911 20.7274 8.79704 20.7366 8.81327C20.7459 8.82949 20.7584 8.84368 20.7733 8.85497C20.7972 8.87212 20.8256 8.88177 20.855 8.88272C20.8978 8.88272 20.9383 8.86697 20.9608 8.83547C21.0469 8.7319 21.1012 8.60563 21.1171 8.4719C21.1331 8.33816 21.11 8.20266 21.0508 8.08172C21.04 8.0667 21.0264 8.05397 21.0107 8.04427C20.995 8.03457 20.9776 8.0281 20.9593 8.02524C20.9411 8.02238 20.9225 8.02318 20.9046 8.0276C20.8867 8.03201 20.8698 8.03996 20.855 8.05097Z" fill="black"/>
</g>
<defs>
<clipPath id="clip0_6839_645">
<rect width="24" height="24" fill="white" transform="translate(2 2)"/>
</clipPath>
</defs>
</svg>
