<svg width="37" height="28" viewBox="0 0 37 28" fill="none" xmlns="http://www.w3.org/2000/svg">
<g clip-path="url(#clip0_6839_629)">
<path d="M2.4836 7.17379C2.39309 7.18707 2.3085 7.22717 2.24054 7.28904C2.17257 7.3509 2.12427 7.43174 2.10176 7.52135C2.07924 7.61095 2.08351 7.70529 2.11403 7.79244C2.14455 7.87959 2.19995 7.95564 2.27322 8.01097C2.34649 8.0663 2.43435 8.09843 2.52568 8.1033C2.61702 8.10816 2.70773 8.08555 2.78635 8.03831C2.86497 7.99107 2.92796 7.92133 2.96738 7.8379C3.00679 7.75447 3.02084 7.66111 3.00777 7.56961C2.99908 7.50882 2.97863 7.45036 2.94758 7.39756C2.91653 7.34477 2.8755 7.29868 2.82682 7.26192C2.77814 7.22516 2.72278 7.19846 2.66389 7.18334C2.605 7.16821 2.54373 7.16497 2.4836 7.17379ZM3.84027 7.17691C3.71554 7.1882 3.59953 7.2463 3.51506 7.33975C3.4306 7.4332 3.38382 7.55523 3.38394 7.68181C3.38373 7.74871 3.39664 7.81499 3.42192 7.87682C3.4472 7.93865 3.48435 7.99481 3.53123 8.04204C3.5781 8.08928 3.63377 8.12666 3.69502 8.15202C3.75626 8.17739 3.82187 8.19024 3.88806 8.18983C3.95386 8.18962 4.01897 8.17632 4.07968 8.15068C4.1404 8.12504 4.19552 8.08756 4.2419 8.04038C4.28828 7.99321 4.32502 7.93726 4.35001 7.87574C4.375 7.81421 4.38776 7.74832 4.38756 7.68181C4.38715 7.54776 4.33418 7.41934 4.24026 7.32469C4.14635 7.23005 4.01914 7.17691 3.88652 7.17691C3.87111 7.17619 3.85568 7.17619 3.84027 7.17691ZM1.27339 7.78777C1.16281 7.80436 1.06318 7.86443 0.996194 7.9549C0.929208 8.04538 0.900288 8.15893 0.915727 8.27086C0.949644 8.50461 1.16239 8.66512 1.39364 8.63083C1.44832 8.62302 1.50093 8.60433 1.54842 8.57583C1.59591 8.54734 1.63734 8.50962 1.67031 8.46484C1.70328 8.42006 1.72715 8.36912 1.74052 8.31496C1.7539 8.2608 1.75651 8.2045 1.74823 8.14931C1.73256 8.03778 1.67377 7.93709 1.58476 7.86931C1.49574 7.80154 1.38377 7.77221 1.27339 7.78777ZM4.48931 8.37215C4.48911 8.44383 4.50292 8.51485 4.52997 8.58111C4.55701 8.64738 4.59675 8.70759 4.6469 8.75828C4.69704 8.80896 4.75661 8.84913 4.82216 8.87647C4.88772 8.9038 4.95798 8.91777 5.02889 8.91757C5.17132 8.91674 5.30762 8.85886 5.4079 8.75662C5.50818 8.65438 5.56426 8.51612 5.56385 8.37215C5.56344 8.22859 5.50674 8.09106 5.40617 7.98969C5.3056 7.88833 5.16937 7.83141 5.02735 7.83141C4.9569 7.8312 4.88709 7.84503 4.82192 7.87209C4.75676 7.89915 4.6975 7.93893 4.64754 7.98914C4.59758 8.03935 4.55789 8.09902 4.53074 8.16474C4.50359 8.23046 4.48951 8.30093 4.48931 8.37215ZM10.602 8.41422C9.65698 8.41422 8.79827 8.94406 8.79827 9.95542C8.79827 11.5122 10.8703 11.0992 10.8703 12.1916C10.8703 12.7526 10.4278 13.1438 9.80344 13.1438C9.3471 13.1438 8.83835 12.991 8.91852 12.5329L8.99098 12.1246H8.37431L8.28027 12.642C8.13227 13.5209 9.1066 13.8014 9.7171 13.8014C10.7084 13.8014 11.5594 13.1827 11.5594 12.1495C11.5594 10.5336 9.48739 10.9527 9.48739 9.91178C9.48739 9.38818 9.94527 9.06249 10.5141 9.06249C10.8502 9.06249 11.305 9.17469 11.2372 9.52999L11.1755 9.89153H11.7937L11.9016 9.32741C12.0296 8.65732 11.1586 8.41422 10.602 8.41422ZM0.517977 8.86147C0.468875 8.86871 0.421667 8.88567 0.37905 8.91137C0.336434 8.93707 0.299245 8.971 0.269609 9.01123C0.239972 9.05147 0.218469 9.09721 0.206329 9.14584C0.194188 9.19448 0.191647 9.24505 0.198852 9.29468C0.206011 9.34406 0.222754 9.39152 0.248121 9.43434C0.273487 9.47715 0.306976 9.51448 0.346661 9.54416C0.386347 9.57385 0.431447 9.59532 0.479367 9.60733C0.527288 9.61933 0.577085 9.62165 0.625894 9.61414C0.674718 9.60726 0.721719 9.5907 0.764201 9.56542C0.806683 9.54014 0.843812 9.50664 0.873459 9.46683C0.903106 9.42702 0.924687 9.38168 0.936967 9.33342C0.949247 9.28516 0.951983 9.23493 0.945019 9.1856C0.930141 9.08585 0.876969 8.99605 0.79703 8.93567C0.717091 8.87529 0.616828 8.84918 0.517977 8.86302V8.86147ZM5.64556 9.05937C5.49717 9.08134 5.36347 9.16196 5.27385 9.28352C5.18424 9.40507 5.14604 9.55763 5.16764 9.70764C5.18902 9.85761 5.2684 9.99288 5.38835 10.0837C5.50831 10.1746 5.65903 10.2136 5.80744 10.1923C5.88105 10.1816 5.95186 10.1563 6.01581 10.118C6.07976 10.0796 6.1356 10.0288 6.18013 9.96863C6.22466 9.90842 6.25701 9.83992 6.27533 9.76707C6.29365 9.69421 6.29758 9.61841 6.28689 9.54402C6.26517 9.39402 6.18541 9.25888 6.06515 9.16829C5.94489 9.07771 5.79397 9.03909 5.64556 9.06093V9.05937ZM14.3776 9.89153C13.1781 9.89153 12.2192 10.9512 12.2192 12.162C12.2192 13.136 12.8405 13.8014 13.8334 13.8014C14.7244 13.8014 15.2424 13.2482 15.2424 13.2482L15.0559 12.695C15.0559 12.695 14.5703 13.1812 13.8935 13.1812C13.2614 13.1812 12.8806 12.7604 12.8806 12.1106C12.8806 11.2473 13.5713 10.5086 14.3082 10.5086C14.6304 10.5086 15.005 10.6411 14.9588 10.945L14.9125 11.1974H15.4891L15.5693 10.7673C15.6772 10.1035 14.8678 9.89153 14.3776 9.89153ZM26.1328 9.89153C25.4961 9.89153 24.9488 10.4665 24.7869 10.7985H24.7715C24.8177 10.666 24.8748 10.3746 24.8748 10.2873C24.8748 10.0879 24.773 9.97879 24.5048 9.97879H23.7386L23.6399 10.5336H24.0608C24.1687 10.5336 24.1949 10.5897 24.181 10.6847L23.6461 13.7141H24.2966L24.5911 12.0467C24.7252 11.308 25.2155 10.5398 25.8645 10.5398C26.2407 10.5398 26.3501 10.7548 26.3501 11.0572C26.3501 11.1818 26.3209 11.3283 26.3008 11.4779L25.9077 13.7141H26.5552L26.8589 12.0062C26.9791 11.2893 27.4617 10.5398 28.0922 10.5398C28.4823 10.5398 28.5856 10.7533 28.5856 11.0774C28.5856 11.4327 28.3004 12.6794 28.3004 13.0253C28.3004 13.6611 28.7428 13.7266 29.045 13.7266C29.2053 13.7266 29.3333 13.7141 29.3333 13.7141L29.4335 13.1593C29.4335 13.1593 29.3641 13.1749 29.2701 13.1749C29.102 13.1749 28.9694 13.1282 28.9694 12.8492C28.9694 12.5532 29.2639 11.3205 29.2639 10.8764C29.2639 10.2421 28.9109 9.89153 28.3343 9.89153C27.77 9.89153 27.2613 10.2889 27.0007 10.7985H26.9853C26.9514 10.2063 26.677 9.89153 26.1328 9.89153ZM18.4815 9.9336C17.945 9.9336 17.4902 10.398 17.2636 10.9294H17.2481C17.3006 10.7517 17.3669 10.3917 17.3669 10.2951C17.3669 10.0816 17.2682 9.97879 17.0061 9.97879H16.2414L16.1335 10.5304H16.5575C16.6716 10.5304 16.6916 10.6052 16.6777 10.6941L16.1489 13.7141H16.798L17.04 12.3272C17.1865 11.4701 17.7492 10.6333 18.3736 10.6333C18.4599 10.6333 18.5216 10.6504 18.5539 10.6582L18.6834 9.94918C18.6172 9.93835 18.5501 9.93314 18.483 9.9336H18.4815ZM19.24 9.98035L19.1382 10.5304H19.7009L19.388 12.3475C19.3569 12.5029 19.3409 12.661 19.3402 12.8196C19.3402 13.5209 19.7749 13.8014 20.2914 13.8014C21.0021 13.8014 21.4739 13.2902 21.6943 12.9069H21.7066C21.6604 13.4679 21.9286 13.7266 22.385 13.7266C22.4879 13.7261 22.5907 13.7219 22.6933 13.7141L22.7935 13.1593C22.7935 13.1593 22.7319 13.1749 22.6316 13.1749C22.4636 13.1749 22.3295 13.1157 22.3295 12.8492C22.3308 12.7729 22.338 12.6969 22.3511 12.6217L22.8213 9.97879H21.608L21.5047 10.5304H22.0674L21.8685 11.6743C21.7483 12.3833 21.1979 13.15 20.5196 13.15C20.1388 13.15 20.0108 12.9521 20.0108 12.6264C20.0108 12.5095 20.0324 12.3552 20.0663 12.201L20.4548 9.97879L19.24 9.98035ZM0.297519 10.1128C0.206163 10.1263 0.123838 10.1759 0.068628 10.2507C0.0134175 10.3255 -0.0101648 10.4194 0.00306057 10.5117C0.0167814 10.6046 0.0663237 10.6882 0.140857 10.7443C0.21539 10.8004 0.308852 10.8243 0.400811 10.8109C0.446132 10.8045 0.489736 10.789 0.529108 10.7654C0.568481 10.7418 0.602844 10.7105 0.630216 10.6734C0.657588 10.6364 0.677429 10.5942 0.688594 10.5493C0.699759 10.5044 0.702027 10.4578 0.695269 10.412C0.681548 10.3191 0.632006 10.2355 0.557472 10.1794C0.482939 10.1234 0.389477 10.0994 0.297519 10.1128ZM0.635144 11.3252C0.557881 11.3364 0.488175 11.3781 0.441344 11.4412C0.394513 11.5044 0.374389 11.5837 0.385394 11.6618C0.397193 11.7405 0.439346 11.8112 0.502625 11.8585C0.565904 11.9058 0.645152 11.9259 0.723019 11.9142C0.800282 11.903 0.869988 11.8613 0.916819 11.7982C0.96365 11.7351 0.983774 11.6557 0.972769 11.5776C0.96059 11.4992 0.918344 11.4287 0.855164 11.3814C0.791983 11.3342 0.712947 11.314 0.635144 11.3252ZM1.39673 12.335C1.32972 12.345 1.26937 12.3815 1.22891 12.4364C1.18846 12.4913 1.17119 12.5602 1.18089 12.628C1.18579 12.6612 1.19714 12.6932 1.21429 12.7221C1.23145 12.7509 1.25406 12.776 1.28085 12.796C1.30764 12.816 1.33806 12.8304 1.37038 12.8385C1.4027 12.8466 1.43628 12.8481 1.46919 12.843C1.53589 12.833 1.59598 12.7967 1.63639 12.7422C1.67681 12.6876 1.69428 12.6191 1.68502 12.5516C1.68031 12.5182 1.66909 12.486 1.65202 12.457C1.63494 12.428 1.61235 12.4027 1.58555 12.3825C1.55874 12.3624 1.52825 12.3478 1.49584 12.3397C1.46343 12.3315 1.42975 12.3299 1.39673 12.335ZM5.23085 12.6778C5.06669 12.6778 4.90925 12.7437 4.79317 12.8611C4.67709 12.9784 4.61187 13.1376 4.61187 13.3035C4.61187 13.4694 4.67709 13.6286 4.79317 13.7459C4.90925 13.8632 5.06669 13.9292 5.23085 13.9292C5.39509 13.9288 5.55249 13.8626 5.66863 13.7452C5.78477 13.6278 5.85019 13.4687 5.8506 13.3027C5.8506 12.9583 5.5731 12.6794 5.23085 12.6794V12.6778ZM2.43889 12.7978C2.37822 12.8025 2.32153 12.8301 2.28011 12.8752C2.23868 12.9202 2.21556 12.9794 2.21535 13.0409C2.21514 13.0734 2.22135 13.1057 2.23362 13.1357C2.24588 13.1658 2.26396 13.1931 2.28678 13.216C2.3096 13.239 2.33672 13.2571 2.36655 13.2693C2.39637 13.2815 2.4283 13.2875 2.46048 13.2871C2.49226 13.2869 2.5237 13.2804 2.55299 13.2679C2.58227 13.2554 2.60884 13.2372 2.63118 13.2144C2.65351 13.1915 2.67117 13.1644 2.68314 13.1347C2.69512 13.1049 2.70118 13.073 2.70098 13.0409C2.70057 12.9766 2.6751 12.915 2.63009 12.8695C2.58507 12.824 2.52414 12.7982 2.46048 12.7978C2.45329 12.7975 2.44608 12.7975 2.43889 12.7978ZM3.47489 12.9412C3.30161 12.948 3.1377 13.0225 3.01754 13.1489C2.89739 13.2752 2.83034 13.4438 2.83048 13.6191C2.83048 13.7531 2.86981 13.8842 2.9435 13.9957C3.01719 14.1071 3.12192 14.194 3.24447 14.2453C3.36701 14.2966 3.50185 14.3101 3.63193 14.2839C3.76202 14.2578 3.88152 14.1932 3.97531 14.0984C4.06909 14.0036 4.13297 13.8828 4.15884 13.7513C4.18472 13.6198 4.17144 13.4835 4.12068 13.3596C4.06992 13.2358 3.98397 13.1299 3.87368 13.0554C3.7634 12.9809 3.63374 12.9412 3.5011 12.9412C3.49237 12.941 3.48363 12.941 3.47489 12.9412ZM6.87427 13.2139C6.80004 13.2141 6.72658 13.2291 6.6581 13.2581C6.58962 13.287 6.52746 13.3293 6.47519 13.3826C6.42291 13.4359 6.38156 13.499 6.35348 13.5685C6.3254 13.638 6.31115 13.7123 6.31156 13.7874C6.31156 14.1021 6.56285 14.3593 6.87427 14.3593C6.94857 14.3593 7.02214 14.3445 7.09079 14.3157C7.15943 14.287 7.22181 14.2449 7.27434 14.1918C7.32688 14.1387 7.36856 14.0756 7.39699 14.0062C7.42543 13.9368 7.44006 13.8625 7.44006 13.7874C7.44006 13.6355 7.3805 13.4899 7.27444 13.3824C7.16838 13.2749 7.02447 13.2143 6.87427 13.2139ZM2.14906 14.0086C2.05459 14.0086 1.96104 14.0275 1.87378 14.0641C1.78651 14.1007 1.70725 14.1543 1.64052 14.2219C1.57379 14.2895 1.5209 14.3697 1.48489 14.458C1.44887 14.5463 1.43044 14.6409 1.43064 14.7364C1.43064 15.1384 1.75131 15.4641 2.14906 15.4641C2.24366 15.4643 2.33738 15.4456 2.42482 15.4091C2.51226 15.3726 2.59171 15.319 2.6586 15.2514C2.7255 15.1838 2.77852 15.1035 2.81463 15.0151C2.85074 14.9267 2.86922 14.832 2.86902 14.7364C2.86922 14.6408 2.85074 14.546 2.81463 14.4576C2.77852 14.3693 2.7255 14.289 2.6586 14.2213C2.59171 14.1537 2.51226 14.1001 2.42482 14.0636C2.33738 14.0271 2.24366 14.0084 2.14906 14.0086ZM8.09681 14.512C8.03223 14.5122 7.96832 14.5252 7.90873 14.5504C7.84914 14.5756 7.79504 14.6124 7.74951 14.6587C7.70399 14.705 7.66793 14.7599 7.6434 14.8203C7.61888 14.8807 7.60636 14.9454 7.60656 15.0106C7.60656 15.2865 7.82239 15.5093 8.09681 15.5093C8.22765 15.5093 8.35313 15.4568 8.44565 15.3633C8.53817 15.2697 8.59014 15.1429 8.59014 15.0106C8.59014 14.8784 8.53817 14.7516 8.44565 14.658C8.35313 14.5645 8.22765 14.512 8.09681 14.512ZM12.432 15.2631L10.0054 20.0238H9.53056L9.45348 20.4523H10.9643L11.0445 20.0238H10.508L11.1863 18.6868H13.0224L13.2306 20.0238H12.6848L12.6139 20.4523H14.1001L14.1771 20.0238H13.6992L12.9531 15.2631H12.432ZM15.0281 15.2631L14.9526 15.6776H15.5585L14.8801 19.5205C14.8611 19.6128 14.8503 19.7067 14.8478 19.801C14.8478 20.3838 15.2424 20.4742 15.5045 20.4742C15.6124 20.4742 15.7389 20.4523 15.7389 20.4523L15.8113 20.0238C15.8113 20.0238 15.7589 20.0394 15.6448 20.0394C15.4845 20.0394 15.3226 20.016 15.3226 19.7059C15.3226 19.6482 15.338 19.5501 15.3504 19.4628L16.0873 15.2631H15.0281ZM16.8196 15.2631L16.744 15.6776H17.3453L16.6716 19.5205C16.6516 19.6127 16.6397 19.7066 16.6361 19.801C16.6361 20.3838 17.0339 20.4742 17.2959 20.4742C17.4039 20.4742 17.5303 20.4523 17.5303 20.4523L17.6027 20.0238C17.6027 20.0238 17.5503 20.0394 17.4362 20.0394C17.2759 20.0394 17.114 20.016 17.114 19.7059C17.114 19.6482 17.1294 19.5501 17.1418 19.4628L17.8771 15.2631H16.8196ZM19.3464 15.2631L19.2323 15.8895H19.7503L19.8644 15.2631H19.3464ZM1.47535 15.729C1.27431 15.7295 1.08162 15.8104 0.939462 15.9541C0.797304 16.0978 0.71726 16.2925 0.716852 16.4957C0.716852 16.9196 1.05602 17.2593 1.47535 17.2593C1.57481 17.2597 1.67338 17.2403 1.76538 17.2021C1.85739 17.1639 1.94103 17.1077 2.01151 17.0368C2.08198 16.9658 2.1379 16.8815 2.17606 16.7887C2.21421 16.6958 2.23385 16.5963 2.23385 16.4957C2.23385 16.2924 2.15394 16.0974 2.01169 15.9536C1.86945 15.8098 1.67652 15.729 1.47535 15.729ZM36.28 15.7898C35.8854 15.7898 35.5662 16.1482 35.5662 16.597C35.5662 17.0443 35.8854 17.4027 36.28 17.4027C36.6809 17.4027 37 17.0443 37 16.597C37 16.1467 36.6793 15.7898 36.28 15.7898ZM12.6077 15.796H12.6201C12.6201 15.796 12.6201 15.9581 12.6463 16.128L12.97 18.252H11.3929L12.4767 16.128C12.5569 15.9566 12.6062 15.796 12.6062 15.796H12.6077ZM36.28 15.9394C36.6038 15.9394 36.852 16.2261 36.852 16.5955C36.852 16.9648 36.6038 17.2531 36.2816 17.2531C35.9609 17.2531 35.7142 16.9648 35.7142 16.5955C35.7142 16.2261 35.9609 15.9379 36.28 15.9379V15.9394ZM8.61481 16.0906C8.55462 16.0904 8.49499 16.1022 8.43935 16.1254C8.38371 16.1486 8.33315 16.1827 8.29059 16.2257C8.24803 16.2687 8.21431 16.3198 8.19137 16.376C8.16844 16.4323 8.15673 16.4926 8.15694 16.5534C8.15694 16.6766 8.20534 16.7947 8.2915 16.8818C8.37765 16.9689 8.49451 17.0178 8.61635 17.0178C8.7382 17.0178 8.85505 16.9689 8.94121 16.8818C9.02737 16.7947 9.07577 16.6766 9.07577 16.5534C9.07557 16.4923 9.06343 16.4318 9.04006 16.3754C9.01669 16.3191 8.98254 16.2679 8.93958 16.2249C8.89661 16.1819 8.84567 16.1479 8.78967 16.1249C8.73368 16.1018 8.67373 16.0902 8.61327 16.0906H8.61481ZM36.0364 16.1763V17.01H36.1783V16.6874H36.3016L36.4434 17.01H36.5991L36.4542 16.703C36.4373 16.6656 36.428 16.6562 36.428 16.6562V16.6516C36.4897 16.6329 36.5668 16.5596 36.5668 16.4318C36.5668 16.276 36.4712 16.1763 36.3278 16.1763H36.0364ZM36.1783 16.2947H36.2985C36.3725 16.2947 36.4219 16.3461 36.4219 16.4318C36.4219 16.5207 36.3725 16.5721 36.2985 16.5721H36.1783V16.2947ZM22.0566 16.6516C21.3521 16.6516 20.831 17.0349 20.831 17.0349L20.9697 17.4416C20.9697 17.4416 21.4276 17.0957 21.9841 17.0957C22.5006 17.0957 22.6733 17.3668 22.6733 17.7595C22.6733 17.892 22.6193 18.1803 22.6193 18.1803H22.3989C21.4739 18.1803 20.111 18.4218 20.111 19.6093C20.111 20.2077 20.555 20.5412 21.0977 20.5412C21.8963 20.5412 22.3464 19.7433 22.3387 19.7433H22.3511C22.3171 20.2373 22.5669 20.4679 22.9631 20.4679C23.0834 20.4679 23.2159 20.4523 23.2159 20.4523L23.2915 20.0394C23.2915 20.0394 23.2298 20.055 23.1157 20.055C22.9616 20.055 22.7997 20.016 22.7997 19.7075C22.7997 19.3958 23.1373 18.1211 23.1373 17.6863C23.1373 16.9695 22.6995 16.6516 22.0566 16.6516ZM26.5583 16.6516C25.7258 16.6516 25.1893 17.317 25.0551 17.6333H25.0397C25.1008 17.4417 25.1391 17.2435 25.1538 17.0427C25.1538 16.851 25.069 16.7388 24.8146 16.7388H24.1702L24.0931 17.1534H24.5526C24.6605 17.1534 24.6867 17.2266 24.6728 17.3139L24.1163 20.4523H24.5711L24.8748 18.7475C25.0212 17.878 25.6919 17.1222 26.4164 17.1222C26.7911 17.1222 27.0007 17.3232 27.0007 17.744C27.0007 18.1569 26.6847 19.5002 26.6847 19.8321C26.6847 20.3931 27.0855 20.4679 27.3291 20.4679C27.4416 20.4679 27.5758 20.4523 27.5758 20.4523L27.6513 20.0394C27.6513 20.0394 27.5896 20.055 27.4817 20.055C27.3214 20.055 27.1595 20.0238 27.1595 19.7075C27.1595 19.4114 27.4756 18.0603 27.4756 17.6037C27.4756 16.9913 27.1472 16.6516 26.5583 16.6516ZM30.4587 16.6516C29.3394 16.6516 28.3343 17.6629 28.3343 18.9252C28.3343 19.921 28.9633 20.5412 29.8821 20.5412C30.7408 20.5412 31.2511 19.9864 31.2511 19.9864L31.1046 19.5734C31.1046 19.5734 30.6221 20.0908 29.9176 20.0908C29.2608 20.0908 28.8045 19.6389 28.8045 18.894C28.8045 17.8827 29.6216 17.1019 30.4063 17.1019C30.7346 17.1019 31.1925 17.2422 31.137 17.5881L31.0892 17.8624H31.5132L31.5795 17.4697C31.6812 16.8651 30.9166 16.6516 30.4602 16.6516H30.4587ZM34.0215 16.6516C32.8806 16.6516 32.0497 17.7658 32.0497 18.9766C32.0497 19.9132 32.654 20.5412 33.579 20.5412C34.2897 20.5412 34.8463 20.0534 34.8463 20.0534L34.706 19.6405C34.706 19.6405 34.208 20.0908 33.5975 20.0908C32.8868 20.0908 32.5184 19.5812 32.5184 18.9392C32.5184 18.7553 32.5523 18.5995 32.5523 18.5995H35.1423C35.1423 18.5995 35.2348 18.2816 35.2348 17.9933C35.2348 17.2188 34.854 16.6516 34.0215 16.6516ZM18.5154 16.7388L18.4429 17.1534H19.0442L18.6171 19.5454C18.6033 19.6482 18.5817 19.7417 18.5817 19.8165C18.5817 20.3994 18.9856 20.4679 19.24 20.4679C19.334 20.4679 19.4759 20.4523 19.4759 20.4523L19.5483 20.0378C19.5483 20.0378 19.4928 20.0534 19.3787 20.0534C19.2184 20.0534 19.0596 20.016 19.0596 19.7075C19.06 19.6359 19.0662 19.5645 19.0781 19.494L19.5745 16.7388H18.5154ZM34.0014 17.0708C34.4439 17.0708 34.7723 17.3606 34.7723 17.9512C34.7723 18.0977 34.7445 18.2317 34.7445 18.2317H32.634C32.876 17.4775 33.4449 17.0708 34.0014 17.0708ZM8.40206 17.7331C8.29943 17.7331 8.20101 17.7743 8.12844 17.8476C8.05587 17.921 8.0151 18.0205 8.0151 18.1242C8.0151 18.2279 8.05587 18.3274 8.12844 18.4008C8.20101 18.4741 8.29943 18.5153 8.40206 18.5153C8.50469 18.5153 8.60311 18.4741 8.67568 18.4008C8.74825 18.3274 8.78902 18.2279 8.78902 18.1242C8.78902 18.0205 8.74825 17.921 8.67568 17.8476C8.60311 17.7743 8.50469 17.7331 8.40206 17.7331ZM22.3557 18.559H22.5515L22.5176 18.7195C22.3711 19.3615 21.8408 20.1282 21.2118 20.1282C20.7616 20.1282 20.5735 19.8555 20.5735 19.5376C20.5735 18.6229 21.7914 18.5574 22.3557 18.5574V18.559ZM7.60502 19.1885C7.56088 19.1881 7.5171 19.1965 7.47617 19.2132C7.43524 19.2299 7.39796 19.2546 7.36647 19.2858C7.33497 19.3171 7.30987 19.3543 7.29261 19.3954C7.27535 19.4364 7.26626 19.4805 7.26585 19.5251C7.26585 19.5702 7.27462 19.6147 7.29167 19.6563C7.30871 19.6979 7.3337 19.7357 7.36519 19.7676C7.39669 19.7994 7.43408 19.8246 7.47523 19.8419C7.51638 19.8591 7.56048 19.868 7.60502 19.868C7.79002 19.868 7.93802 19.7121 7.93802 19.5251C7.93802 19.4359 7.90294 19.3503 7.84049 19.2871C7.77804 19.224 7.69334 19.1885 7.60502 19.1885ZM6.35781 19.988C6.2733 19.9884 6.19236 20.0225 6.1326 20.0829C6.07284 20.1433 6.03909 20.2251 6.03869 20.3105C6.03869 20.4882 6.18206 20.63 6.35781 20.63C6.39937 20.6302 6.44056 20.6221 6.479 20.6061C6.51743 20.5901 6.55235 20.5666 6.58174 20.5369C6.61113 20.5072 6.6344 20.4719 6.65021 20.433C6.66602 20.3942 6.67406 20.3526 6.67385 20.3105C6.67406 20.2684 6.66604 20.2266 6.65027 20.1876C6.6345 20.1485 6.61127 20.113 6.58193 20.0831C6.55258 20.0531 6.51768 20.0293 6.47923 20.013C6.44077 19.9967 6.39952 19.9882 6.35781 19.988Z" fill="black"/>
</g>
<defs>
<clipPath id="clip0_6839_629">
<rect width="37" height="22" fill="white" transform="translate(0 4)"/>
</clipPath>
</defs>
</svg>
