<svg width="28" height="28" viewBox="0 0 28 28" fill="none" xmlns="http://www.w3.org/2000/svg">
<g clip-path="url(#clip0_6839_603)">
<path fill-rule="evenodd" clip-rule="evenodd" d="M23.625 7.59375V18.5625H21.9375V7.59375H18.5625C17.8912 7.59375 17.2474 7.32707 16.7727 6.85236C16.2979 6.37766 16.0313 5.73383 16.0313 5.0625V1.6875H6.75002C6.30246 1.6875 5.87324 1.86529 5.55677 2.18176C5.2403 2.49822 5.06251 2.92745 5.06251 3.375V18.5625H3.37501V3.375C3.37501 2.47989 3.73059 1.62145 4.36353 0.988515C4.99646 0.355579 5.85491 0 6.75002 0L16.0313 0L23.625 7.59375ZM2.28826 25.8019C2.17629 25.5642 2.11262 25.3067 2.10095 25.0442H3.39189C3.41533 25.1759 3.46562 25.3015 3.53965 25.4129C3.61368 25.5244 3.70986 25.6195 3.8222 25.6922C3.94033 25.7749 4.08039 25.839 4.24239 25.8846C4.4027 25.9318 4.58326 25.9538 4.7807 25.9538C5.05745 25.9538 5.29033 25.9149 5.47764 25.8356C5.64973 25.7713 5.79929 25.6581 5.90795 25.5099C6.0045 25.3652 6.05454 25.1945 6.05139 25.0206C6.05617 24.9148 6.03516 24.8095 5.99018 24.7136C5.9452 24.6178 5.8776 24.5343 5.7932 24.4704C5.62277 24.3354 5.36289 24.2274 5.01358 24.1447L3.96901 23.9034C3.64757 23.8354 3.34001 23.7133 3.05945 23.5423C2.81206 23.3902 2.60806 23.1769 2.46714 22.923C2.3236 22.6508 2.25214 22.3464 2.25958 22.0388C2.25958 21.627 2.36589 21.2676 2.5802 20.9604C2.79451 20.655 3.09151 20.4171 3.4712 20.2483C3.8492 20.0796 4.28626 19.9969 4.7807 19.9969C5.29539 19.9969 5.73245 20.0812 6.09695 20.2534C6.46145 20.4255 6.74327 20.6567 6.9407 20.9452C7.1432 21.2321 7.25458 21.5511 7.2782 21.9004H6.01258C5.98369 21.7402 5.91394 21.5903 5.81008 21.465C5.69867 21.3301 5.55542 21.2252 5.39327 21.1596C5.19575 21.0791 4.98381 21.04 4.77058 21.0448C4.40439 21.0448 4.11583 21.1292 3.90489 21.3013C3.80598 21.3774 3.72635 21.4757 3.67242 21.5883C3.61848 21.7009 3.59175 21.8245 3.59439 21.9493C3.59439 22.1535 3.67539 22.3206 3.8357 22.4556C4.03781 22.6052 4.27167 22.7062 4.51914 22.7509L5.56539 22.9922C5.93158 23.0766 6.25051 23.1947 6.52051 23.3483C6.79051 23.5001 7.00145 23.7026 7.15333 23.9524C7.3052 24.2021 7.38114 24.5177 7.38114 24.8974C7.38114 25.3142 7.27483 25.6838 7.06389 26.0044C6.83925 26.3346 6.52314 26.592 6.15433 26.7452C5.75945 26.9224 5.27683 27.0118 4.70645 27.0118C4.27783 27.0118 3.9032 26.9612 3.58426 26.8599C3.29039 26.7718 3.01644 26.6273 2.77764 26.4347C2.57161 26.2607 2.40481 26.045 2.28826 25.8019ZM9.50064 22.0388C9.37671 22.3809 9.31776 22.7432 9.32683 23.1069V23.9422C9.32683 24.3574 9.3842 24.7101 9.50064 25.0003C9.59777 25.2664 9.77306 25.497 10.0035 25.6618C10.2441 25.815 10.5251 25.8925 10.8101 25.8846C11.0443 25.8899 11.2764 25.839 11.4868 25.7361C11.6753 25.6398 11.8344 25.4947 11.9475 25.3159C12.0619 25.1306 12.1296 24.9205 12.145 24.7033H13.4359V24.8316C13.4196 25.2393 13.2873 25.6338 13.0545 25.9689C12.817 26.3007 12.4971 26.5648 12.1264 26.7351C11.7106 26.9255 11.2573 27.02 10.8 27.0118C10.1925 27.0118 9.67952 26.8903 9.25764 26.6456C8.83671 26.3994 8.50064 26.031 8.29408 25.5892C8.0747 25.1302 7.9667 24.5818 7.9667 23.9422V23.1019C7.9667 22.4606 8.07808 21.9122 8.29914 21.4498C8.50471 21.0049 8.84 20.6325 9.26102 20.3816C9.68795 20.1319 10.201 20.007 10.8 20.007C11.1696 20.007 11.5105 20.061 11.8243 20.1707C12.1399 20.2753 12.415 20.4289 12.6495 20.6297C12.8866 20.8311 13.0791 21.0799 13.2145 21.36C13.3499 21.6402 13.4253 21.9455 13.4359 22.2564V22.3796H12.145C12.1292 22.1528 12.0598 21.9331 11.9425 21.7384C11.8321 21.5521 11.6728 21.3998 11.4818 21.2979C11.2758 21.1862 11.0444 21.1298 10.8101 21.1343C10.5253 21.1269 10.2451 21.2082 10.0086 21.3671C9.77718 21.5365 9.60056 21.77 9.50064 22.0388ZM13.9033 25.0442C13.913 25.3101 13.9782 25.571 14.0947 25.8102C14.2113 26.0494 14.3766 26.2615 14.58 26.433C14.7977 26.6152 15.066 26.757 15.3866 26.8582C15.7073 26.9612 16.0785 27.0118 16.5088 27.0118C17.0792 27.0118 17.5618 26.9224 17.9567 26.7452C18.355 26.568 18.6587 26.3199 18.868 26.0027C19.0808 25.6732 19.1906 25.2878 19.1835 24.8957C19.1835 24.5177 19.1076 24.2038 18.9557 23.9507C18.8012 23.6979 18.583 23.4902 18.3229 23.3483C18.024 23.1831 17.702 23.0637 17.3678 22.9939L16.3215 22.7509C16.0739 22.7057 15.84 22.6041 15.6381 22.4539C15.5614 22.3943 15.4997 22.3177 15.4578 22.2301C15.4159 22.1425 15.395 22.0464 15.3968 21.9493C15.3968 21.6861 15.4997 21.4701 15.7073 21.3013C15.9182 21.1309 16.2068 21.0448 16.573 21.0448C16.8126 21.0448 17.0201 21.0836 17.1956 21.1596C17.3572 21.2254 17.4999 21.3303 17.6108 21.465C17.7146 21.5903 17.7844 21.7402 17.8133 21.9004H19.0789C19.0579 21.5567 18.941 21.2258 18.7414 20.9452C18.5281 20.6424 18.2364 20.4032 17.8976 20.2534C17.4833 20.0716 17.0337 19.984 16.5814 19.9969C16.0886 19.9969 15.6516 20.0812 15.2719 20.25C14.8939 20.4171 14.5969 20.655 14.3826 20.9604C14.1683 21.2676 14.062 21.627 14.062 22.0388C14.062 22.3779 14.1295 22.6733 14.2695 22.923C14.4079 23.1744 14.6053 23.3786 14.8618 23.5423C15.1183 23.7026 15.4221 23.8241 15.7731 23.9017L16.8143 24.1447C17.1636 24.2274 17.4251 24.3354 17.5956 24.4704C17.68 24.5343 17.7476 24.6178 17.7926 24.7136C17.8375 24.8095 17.8585 24.9148 17.8538 25.0206C17.8563 25.1944 17.8063 25.365 17.7103 25.5099C17.6017 25.6582 17.4522 25.7714 17.28 25.8356C17.0578 25.9205 16.8209 25.9607 16.5831 25.9538C16.384 25.9538 16.2051 25.9318 16.0431 25.8862C15.8933 25.8451 15.7513 25.7795 15.6229 25.6922C15.5105 25.6195 15.4144 25.5244 15.3403 25.4129C15.2663 25.3015 15.216 25.1759 15.1926 25.0442H13.905H13.9033ZM19.813 25.8019C19.7016 25.5641 19.6385 25.3065 19.6273 25.0442H20.9166C20.94 25.1759 20.9903 25.3015 21.0643 25.4129C21.1384 25.5244 21.2345 25.6195 21.3469 25.6922C21.465 25.7749 21.6051 25.839 21.7671 25.8846C21.9274 25.9318 22.108 25.9538 22.3054 25.9538C22.5821 25.9538 22.815 25.9149 23.0023 25.8356C23.1745 25.7714 23.3241 25.6582 23.4326 25.5099C23.5292 25.3652 23.5792 25.1945 23.5761 25.0206C23.581 24.915 23.5603 24.8097 23.5156 24.7139C23.4709 24.6181 23.4037 24.5345 23.3196 24.4704C23.1475 24.3354 22.8876 24.2274 22.5383 24.1447L21.4954 23.9034C21.1734 23.8356 20.8652 23.7135 20.5841 23.5423C20.3368 23.3902 20.1328 23.1769 19.9918 22.923C19.8483 22.6508 19.7768 22.3464 19.7843 22.0388C19.7843 21.627 19.8906 21.2676 20.1049 20.9604C20.3192 20.655 20.6162 20.4171 20.9959 20.2483C21.3739 20.0796 21.811 19.9969 22.3054 19.9969C22.8201 19.9969 23.2588 20.0812 23.6216 20.2534C23.9861 20.4255 24.268 20.6567 24.4654 20.9452C24.6679 21.2321 24.7793 21.5511 24.8029 21.9004H23.5373C23.5084 21.7402 23.4386 21.5903 23.3348 21.465C23.2234 21.3301 23.0801 21.2251 22.918 21.1596C22.7204 21.0791 22.5085 21.04 22.2953 21.0448C21.9291 21.0448 21.6422 21.1292 21.4313 21.3013C21.332 21.3773 21.2521 21.4755 21.1979 21.5881C21.1436 21.7006 21.1166 21.8244 21.1191 21.9493C21.1191 22.1535 21.2001 22.3206 21.3604 22.4556C21.5625 22.6052 21.7964 22.7062 22.0438 22.7509L23.0901 22.9922C23.458 23.0766 23.7752 23.1947 24.0452 23.3483C24.3152 23.5001 24.5261 23.7026 24.678 23.9524C24.8299 24.2021 24.9058 24.5177 24.9058 24.8974C24.9058 25.3142 24.8012 25.6838 24.5903 26.0044C24.3651 26.3347 24.0484 26.5922 23.679 26.7452C23.2841 26.9224 22.8015 27.0118 22.2311 27.0118C21.8025 27.0118 21.4279 26.9612 21.109 26.8599C20.8151 26.7718 20.5411 26.6273 20.3023 26.4347C20.0963 26.2607 19.9295 26.045 19.813 25.8019Z" fill="black"/>
</g>
<defs>
<clipPath id="clip0_6839_603">
<rect width="27" height="27" fill="white"/>
</clipPath>
</defs>
</svg>
