<svg width="28" height="28" viewBox="0 0 28 28" fill="none" xmlns="http://www.w3.org/2000/svg">
<g clip-path="url(#clip0_6839_534)">
<path d="M20.1564 23.2695C18.1745 24.7425 15.7693 25.5348 13.3 25.5282C6.92278 25.5282 1.77185 20.3684 1.77185 14.0001C1.77185 7.62286 6.93162 2.47193 13.3 2.47193C16.1441 2.46949 18.8883 3.52112 21.0024 5.42369C21.0285 5.44745 21.0464 5.47892 21.0534 5.51352C21.0603 5.54811 21.0561 5.58404 21.0413 5.61607C21.0265 5.6481 21.0018 5.67457 20.9709 5.69163C20.94 5.7087 20.9045 5.71547 20.8695 5.71096C19.9957 5.59429 19.1149 5.53714 18.2334 5.5399C12.2201 5.5399 7.89524 8.02542 7.89524 12.7612C7.89524 17.828 12.1778 19.5424 16.1151 21.0694C17.6788 21.6737 19.1551 22.2482 20.1592 23.0027C20.1798 23.0182 20.1965 23.0383 20.208 23.0613C20.2195 23.0844 20.2255 23.1098 20.2255 23.1356C20.2255 23.1614 20.2195 23.1868 20.208 23.2099C20.1965 23.233 20.1798 23.2531 20.1592 23.2686L20.1564 23.2695ZM24.7816 12.9351C24.7775 12.891 24.7563 12.8503 24.7226 12.8217C22.3166 10.8228 20.3707 10.0103 18.0065 10.0103C14.0958 10.0103 14.2761 12.4354 14.2761 12.5033C14.2761 14.4835 16.6961 15.3853 19.4982 16.4307C20.9425 16.9695 22.4356 17.5264 23.8064 18.2868C23.827 18.2979 23.8496 18.3044 23.8729 18.3061C23.8962 18.3078 23.9196 18.3045 23.9415 18.2965C23.9634 18.2885 23.9834 18.276 24.0002 18.2597C24.017 18.2435 24.0301 18.2239 24.0388 18.2022C24.6919 16.528 24.9463 14.7247 24.7816 12.9351Z" fill="#03112F"/>
</g>
<defs>
<clipPath id="clip0_6839_534">
<rect width="23.8" height="23.8" fill="white" transform="translate(1.40002 2.09998)"/>
</clipPath>
</defs>
</svg>
