<svg width="28" height="28" viewBox="0 0 28 28" fill="none" xmlns="http://www.w3.org/2000/svg">
<path d="M11.4333 13.3678C11.4855 13.3678 11.5365 13.3525 11.5799 13.3237C11.6234 13.2949 11.6573 13.254 11.6773 13.2061C11.7861 12.7293 12.0419 12.2981 12.409 11.9729C12.4701 11.9324 12.4904 11.8516 12.4904 11.7707C12.4878 11.7375 12.4772 11.7055 12.4595 11.6774C12.4418 11.6492 12.4175 11.6257 12.3887 11.6089L6.65508 8.2731L10.315 6.15039C10.3869 6.10916 10.447 6.0504 10.4897 5.97965C10.5324 5.9089 10.5562 5.8285 10.559 5.74605C10.5605 5.66268 10.5384 5.58057 10.4953 5.50908C10.4522 5.43758 10.3897 5.37958 10.315 5.3417L9.21705 4.71484C9.14561 4.67508 9.0651 4.6542 8.98323 4.6542C8.90135 4.6542 8.82084 4.67508 8.7494 4.71484L3.82887 7.54521C3.75699 7.58644 3.69687 7.64521 3.65417 7.71595C3.61148 7.7867 3.58762 7.8671 3.58485 7.94956V13.57C3.58332 13.6534 3.60539 13.7355 3.64853 13.807C3.69168 13.8785 3.75417 13.9365 3.82887 13.9744L4.9268 14.6011C5.00031 14.6448 5.08521 14.6659 5.17077 14.6617C5.29096 14.665 5.40768 14.6214 5.4961 14.5404C5.58396 14.4468 5.63457 14.3247 5.63851 14.1967V10.0322L11.3316 13.3477C11.3634 13.3623 11.3982 13.3692 11.4333 13.3678ZM18.875 20.4438C18.7904 20.4471 18.7073 20.4677 18.631 20.5045L14.9712 22.6071V16.0567C14.9712 15.9151 14.8288 15.7735 14.6662 15.8343C14.2028 15.9724 13.71 15.9794 13.2429 15.8545C13.2078 15.8444 13.1708 15.8425 13.1348 15.8488C13.0988 15.8552 13.0648 15.8697 13.0353 15.8911C13.0059 15.9126 12.9818 15.9406 12.9649 15.9728C12.948 16.005 12.9387 16.0406 12.9379 16.077V22.5869L9.27799 20.4843C9.20447 20.4405 9.11955 20.4194 9.03398 20.4236C8.91038 20.425 8.79223 20.4744 8.70482 20.5613C8.61742 20.6482 8.56771 20.7657 8.56633 20.8886V22.1623C8.56479 22.2457 8.58685 22.3278 8.62999 22.3993C8.67314 22.4708 8.73564 22.5288 8.81034 22.5666L13.7309 25.3769C13.8044 25.4206 13.8893 25.4417 13.9748 25.4375C14.0598 25.4366 14.1434 25.4158 14.2189 25.3769L19.1394 22.5666C19.2113 22.5254 19.2714 22.4667 19.3141 22.3959C19.3568 22.3252 19.3806 22.2448 19.3834 22.1623V20.8886C19.3429 20.6663 19.119 20.4438 18.875 20.4438ZM17.0451 5.80859C17.2685 5.80859 17.4868 5.74273 17.6726 5.61933C17.8583 5.49592 18.0031 5.32053 18.0886 5.11532C18.174 4.91011 18.1964 4.6843 18.1528 4.46645C18.1093 4.2486 18.0017 4.04849 17.8437 3.89143C17.6858 3.73437 17.4845 3.62741 17.2654 3.58408C17.0463 3.54075 16.8192 3.56299 16.6128 3.64799C16.4065 3.73299 16.2301 3.87693 16.106 4.06162C15.9818 4.2463 15.9156 4.46343 15.9156 4.68555C15.9156 4.9834 16.0346 5.26905 16.2464 5.47966C16.4582 5.69027 16.7455 5.80859 17.0451 5.80859ZM20.1696 5.31611C19.9462 5.31611 19.7279 5.38198 19.5421 5.50538C19.3564 5.62878 19.2116 5.80418 19.1261 6.00939C19.0406 6.2146 19.0183 6.44041 19.0618 6.65826C19.1054 6.87611 19.213 7.07621 19.371 7.23327C19.5289 7.39034 19.7302 7.4973 19.9493 7.54063C20.1684 7.58396 20.3955 7.56172 20.6018 7.47672C20.8082 7.39172 20.9846 7.24778 21.1087 7.06309C21.2328 6.87841 21.2991 6.66128 21.2991 6.43916C21.2991 6.14131 21.1801 5.85566 20.9683 5.64505C20.7564 5.43443 20.4692 5.31611 20.1696 5.31611ZM23.2723 9.40234C23.4957 9.40234 23.7141 9.33648 23.8998 9.21308C24.0855 9.08967 24.2303 8.91428 24.3158 8.70907C24.4013 8.50386 24.4236 8.27805 24.3801 8.0602C24.3365 7.84235 24.2289 7.64224 24.0709 7.48518C23.913 7.32812 23.7117 7.22116 23.4926 7.17783C23.2736 7.1345 23.0465 7.15674 22.8401 7.24174C22.6337 7.32674 22.4573 7.47068 22.3332 7.65537C22.2091 7.84005 22.1428 8.05718 22.1428 8.2793C22.1428 8.57715 22.2618 8.8628 22.4736 9.07341C22.6855 9.28402 22.9727 9.40234 23.2723 9.40234ZM20.1696 8.95312C19.9462 8.95312 19.7279 9.01899 19.5421 9.14239C19.3564 9.26579 19.2116 9.44119 19.1261 9.6464C19.0406 9.85161 19.0183 10.0774 19.0618 10.2953C19.1054 10.5131 19.213 10.7132 19.371 10.8703C19.5289 11.0273 19.7302 11.1343 19.9493 11.1776C20.1684 11.221 20.3955 11.1987 20.6018 11.1137C20.8082 11.0287 20.9846 10.8848 21.1087 10.7001C21.2328 10.5154 21.2991 10.2983 21.2991 10.0762C21.2991 9.77832 21.1801 9.49267 20.9683 9.28206C20.7564 9.07145 20.4692 8.95312 20.1696 8.95312ZM17.0451 13.0178C17.2685 13.0178 17.4868 12.9519 17.6726 12.8285C17.8583 12.7051 18.0031 12.5297 18.0886 12.3245C18.174 12.1193 18.1964 11.8935 18.1528 11.6756C18.1093 11.4578 18.0017 11.2577 17.8437 11.1006C17.6858 10.9436 17.4845 10.8366 17.2654 10.7933C17.0463 10.7499 16.8192 10.7722 16.6128 10.8572C16.4065 10.9422 16.2301 11.0861 16.106 11.2708C15.9818 11.4555 15.9156 11.6726 15.9156 11.8947C15.9156 12.0422 15.9448 12.1883 16.0015 12.3246C16.0583 12.4608 16.1415 12.5847 16.2463 12.689C16.3512 12.7933 16.4758 12.876 16.6128 12.9325C16.7498 12.9889 16.8967 13.018 17.0451 13.018V13.0178ZM13.9968 14.7931C14.2202 14.7931 14.4386 14.7272 14.6243 14.6038C14.81 14.4804 14.9548 14.305 15.0403 14.0998C15.1258 13.8946 15.1481 13.6688 15.1046 13.4509C15.061 13.2331 14.9534 13.033 14.7954 12.8759C14.6375 12.7188 14.4362 12.6119 14.2171 12.5686C13.998 12.5252 13.771 12.5475 13.5646 12.6325C13.3582 12.7175 13.1818 12.8614 13.0577 13.0461C12.9336 13.2308 12.8673 13.4479 12.8673 13.67C12.8673 13.8175 12.8965 13.9636 12.9532 14.0999C13.01 14.2361 13.0932 14.36 13.1981 14.4643C13.303 14.5686 13.4275 14.6513 13.5645 14.7078C13.7016 14.7642 13.8485 14.7933 13.9968 14.7933V14.7931ZM23.2723 10.7717C23.0489 10.7717 22.8305 10.8375 22.6448 10.9609C22.4591 11.0843 22.3143 11.2597 22.2288 11.465C22.1433 11.6702 22.121 11.896 22.1645 12.1138C22.2081 12.3317 22.3157 12.5318 22.4736 12.6888C22.6316 12.8459 22.8329 12.9529 23.052 12.9962C23.271 13.0395 23.4981 13.0173 23.7045 12.9323C23.9109 12.8473 24.0873 12.7033 24.2114 12.5187C24.3355 12.334 24.4018 12.1168 24.4018 11.8947C24.4017 11.5969 24.2827 11.3113 24.0709 11.1007C23.8591 10.8902 23.5718 10.7719 23.2723 10.7719V10.7717ZM23.2723 14.3006C23.0489 14.3006 22.8305 14.3665 22.6448 14.4899C22.4591 14.6133 22.3143 14.7887 22.2288 14.9939C22.1433 15.1991 22.121 15.4249 22.1645 15.6427C22.2081 15.8606 22.3157 16.0607 22.4736 16.2177C22.6316 16.3748 22.8329 16.4818 23.052 16.5251C23.271 16.5684 23.4981 16.5462 23.7045 16.4612C23.9109 16.3762 24.0873 16.2322 24.2114 16.0476C24.3355 15.8629 24.4018 15.6458 24.4018 15.4236C24.4017 15.1258 24.2827 14.8402 24.0709 14.6296C23.8591 14.4191 23.5718 14.3008 23.2723 14.3008V14.3006Z" fill="white"/>
</svg>
