<svg width="34" height="34" viewBox="0 0 34 34" fill="none" xmlns="http://www.w3.org/2000/svg">
<path d="M6.375 12.75C5.525 12.75 4.95833 13.4583 4.95833 14.1667V16.6458C4.95833 17.3542 5.525 18.0625 6.375 18.0625H9.91667V19.125H4.95833V21.25H10.625C11.475 21.25 12.0417 20.5417 12.0417 19.8333V17.3542C12.0417 16.6458 11.475 15.9375 10.625 15.9375H7.08333V14.875H12.0417V12.75H6.375ZM14.875 12.75C14.025 12.75 13.4583 13.4583 13.4583 14.1667V16.6458C13.4583 17.3542 14.025 18.0625 14.875 18.0625H18.4167V19.125H13.4583V21.25H19.125C19.975 21.25 20.5417 20.5417 20.5417 19.8333V17.3542C20.5417 16.6458 19.975 15.9375 19.125 15.9375H15.5833V14.875H20.5417V12.75H14.875ZM21.9583 12.75V21.25H24.0833V17.7083H26.9167V21.25H29.0417V12.75H26.9167V15.5833H24.0833V12.75H21.9583Z" fill="black"/>
</svg>
