<svg width="28" height="28" viewBox="0 0 28 28" fill="none" xmlns="http://www.w3.org/2000/svg">
<g clip-path="url(#clip0_6839_619)">
<path d="M14 0.4375C6.50781 0.4375 0.4375 6.50781 0.4375 14C0.4375 21.4922 6.50781 27.5625 14 27.5625C21.4922 27.5625 27.5625 21.4922 27.5625 14C27.5625 6.50781 21.4922 0.4375 14 0.4375ZM21.3139 8.28734C20.6866 8.30977 20.253 7.93461 20.2327 7.36477C20.218 6.86273 20.598 6.62977 20.5898 6.33391C20.5773 5.9757 20.0342 5.96094 19.886 5.96914C17.7105 6.03969 17.2288 9.08633 16.6655 12.1953C17.8374 12.3676 18.6698 12.1559 19.1341 11.8552C19.7903 11.4313 18.9514 10.9955 19.0564 10.512C19.2752 9.51891 20.8365 9.47297 20.8064 10.8019C20.7867 11.7786 19.3889 13.0884 16.5627 12.7542C15.9742 16.0092 15.5591 19.0433 13.3798 21.5983C11.7939 23.4828 10.1861 23.7759 9.46531 23.8C8.11727 23.8465 7.22312 23.1268 7.19141 22.1681C7.16078 21.2384 7.98164 20.732 8.52086 20.714C9.71797 20.673 10.168 22.1178 9.33461 22.5734C8.67344 23.1044 9.34063 23.263 9.44672 23.2597C10.0166 23.24 10.395 22.9584 10.6597 22.7675C11.9722 21.6737 12.4775 19.7673 13.1398 16.2952C13.5877 13.5795 14.0695 12.0296 14.1367 11.8109C13.2109 11.1136 12.6558 10.2495 11.4105 9.91211C10.5569 9.68078 10.0368 9.87766 9.67094 10.3403C9.23781 10.8872 9.38164 11.5981 9.80055 12.0192L10.4913 12.7848C11.3395 13.7654 11.8038 14.5277 11.6287 15.5531C11.352 17.1899 9.40187 18.4461 7.09625 17.7373C5.1275 17.1298 4.76109 15.738 4.99734 14.9691C5.40805 13.6484 7.31391 14.3281 6.89062 15.7128C6.73805 16.1831 6.62156 16.1875 6.54719 16.4276C6.29781 17.2353 8.83586 17.9807 9.33625 16.3516C9.5807 15.5575 9.04641 15.1643 8.11945 14.1723C6.5625 12.4359 7.24445 10.5908 8.28078 9.81531C11.1688 7.66336 13.778 10.7734 14.3281 11.2268C16.3609 5.26586 19.8259 5.45945 19.9298 5.45563C21.3057 5.41133 22.3464 6.03477 22.3814 7.02242C22.3951 7.44297 22.1534 8.25781 21.3139 8.28734Z" fill="black"/>
</g>
<defs>
<clipPath id="clip0_6839_619">
<rect width="28" height="28" fill="white"/>
</clipPath>
</defs>
</svg>
