<svg width="28" height="28" viewBox="0 0 28 28" fill="none" xmlns="http://www.w3.org/2000/svg">
<path d="M22.125 5.875V9.125H5.875V5.875H22.125ZM22.125 4.25H5.875C5.44402 4.25 5.0307 4.4212 4.72595 4.72595C4.4212 5.0307 4.25 5.44402 4.25 5.875V9.125C4.25 9.55598 4.4212 9.9693 4.72595 10.274C5.0307 10.5788 5.44402 10.75 5.875 10.75H22.125C22.556 10.75 22.9693 10.5788 23.274 10.274C23.5788 9.9693 23.75 9.55598 23.75 9.125V5.875C23.75 5.44402 23.5788 5.0307 23.274 4.72595C22.9693 4.4212 22.556 4.25 22.125 4.25ZM9.125 14V22.125H5.875V14H9.125ZM9.125 12.375H5.875C5.44402 12.375 5.0307 12.5462 4.72595 12.851C4.4212 13.1557 4.25 13.569 4.25 14V22.125C4.25 22.556 4.4212 22.9693 4.72595 23.274C5.0307 23.5788 5.44402 23.75 5.875 23.75H9.125C9.55598 23.75 9.9693 23.5788 10.274 23.274C10.5788 22.9693 10.75 22.556 10.75 22.125V14C10.75 13.569 10.5788 13.1557 10.274 12.851C9.9693 12.5462 9.55598 12.375 9.125 12.375ZM22.125 14V22.125H14V14H22.125ZM22.125 12.375H14C13.569 12.375 13.1557 12.5462 12.851 12.851C12.5462 13.1557 12.375 13.569 12.375 14V22.125C12.375 22.556 12.5462 22.9693 12.851 23.274C13.1557 23.5788 13.569 23.75 14 23.75H22.125C22.556 23.75 22.9693 23.5788 23.274 23.274C23.5788 22.9693 23.75 22.556 23.75 22.125V14C23.75 13.569 23.5788 13.1557 23.274 12.851C22.9693 12.5462 22.556 12.375 22.125 12.375Z" fill="black"/>
</svg>
