<svg width="28" height="28" viewBox="0 0 28 28" fill="none" xmlns="http://www.w3.org/2000/svg">
<path d="M6.9 21C6.3775 21 5.93037 20.8166 5.5586 20.4497C5.1862 20.0822 5 19.6406 5 19.125V7.875C5 7.35938 5.1862 6.91812 5.5586 6.55125C5.93037 6.18375 6.3775 6 6.9 6H22.1C22.6225 6 23.07 6.18375 23.4424 6.55125C23.8141 6.91812 24 7.35938 24 7.875V19.125C24 19.6406 23.8141 20.0822 23.4424 20.4497C23.07 20.8166 22.6225 21 22.1 21H6.9ZM6.9 12.5625H10.7V7.875H6.9V12.5625ZM12.6 12.5625H16.4V7.875H12.6V12.5625ZM18.3 12.5625H22.1V7.875H18.3V12.5625ZM10.7 19.125V14.4375H6.9V19.125H10.7ZM12.6 19.125H16.4V14.4375H12.6V19.125ZM18.3 19.125H22.1V14.4375H18.3V19.125Z" fill="#1C1B1F"/>
</svg>
